<svg xmlns="http://www.w3.org/2000/svg" viewBox="0 0 840 420" width="840" height="420">
  <style>
    text { font-family: system-ui, -apple-system, 'Segoe UI', sans-serif; }
  </style>
  <defs>
    <pattern id="h" patternUnits="userSpaceOnUse" width="6" height="6" patternTransform="rotate(45)">
      <line x1="0" y1="0" x2="0" y2="6" stroke="rgba(26,25,21,0.07)" stroke-width="1"/>
    </pattern>
    <linearGradient id="lg" x1="0%" y1="0%" x2="100%" y2="0%">
      <stop offset="0%" stop-color="#1a1915" stop-opacity="0.4"/>
      <stop offset="30%" stop-color="#1a1915"/>
      <stop offset="100%" stop-color="#8b2500"/>
    </linearGradient>
  </defs>

  <rect width="840" height="420" rx="4" fill="#f5f0e8"/>
  <rect x=".5" y=".5" width="839" height="419" rx="4" fill="none" stroke="rgba(26,25,21,0.12)"/>

  <!-- Header -->
  <text x="60" y="32" font-size="11" font-weight="600" letter-spacing="0.14em" fill="#1a1915">OBSERVATOIRE</text>
  <text x="165" y="32" font-size="11" fill="#c9a227" letter-spacing="0.08em">·</text>
  <text x="178" y="32" font-size="11" font-weight="500" letter-spacing="0.06em" fill="rgba(26,25,21,0.45)">scub-france/Docling-Studio</text>

  <!-- Count -->
  <text x="800" y="30" font-size="34" font-weight="800" fill="#1a1915" text-anchor="end" letter-spacing="-0.02em">63</text>
  <text x="800" y="46" font-size="10" fill="rgba(26,25,21,0.35)" text-anchor="end" font-style="italic">etoiles observees</text>

  <!-- Weekly badge -->
  <rect x="704" y="54" width="96" height="20" rx="2" fill="none" stroke="rgba(201,162,39,0.35)"/>
  <text x="752" y="67" font-size="9" font-weight="600" fill="#c9a227" text-anchor="middle" letter-spacing="0.04em">↗ +19 THIS WEEK</text>

  <line x1="60" y1="90" x2="800" y2="90" stroke="rgba(26,25,21,0.1)"/>

  <!-- Stats row -->
  <text x="152.5" y="128" font-size="26" font-weight="600" fill="#1a1915" text-anchor="middle" letter-spacing="-0.02em">63</text>
  <text x="152.5" y="146" font-size="11" fill="rgba(26,25,21,0.4)" text-anchor="middle" font-style="italic">sur la periode</text>
  <line x1="245.0" y1="98" x2="245.0" y2="152" stroke="rgba(26,25,21,0.1)"/>
  <text x="337.5" y="128" font-size="26" font-weight="600" fill="#1a1915" text-anchor="middle" letter-spacing="-0.02em">+19</text>
  <text x="337.5" y="146" font-size="11" fill="rgba(26,25,21,0.4)" text-anchor="middle" font-style="italic">cette semaine</text>
  <line x1="430.0" y1="98" x2="430.0" y2="152" stroke="rgba(26,25,21,0.1)"/>
  <text x="522.5" y="128" font-size="26" font-weight="600" fill="#1a1915" text-anchor="middle" letter-spacing="-0.02em">1.6</text>
  <text x="522.5" y="146" font-size="11" fill="rgba(26,25,21,0.4)" text-anchor="middle" font-style="italic">moy. / semaine</text>
  <line x1="615.0" y1="98" x2="615.0" y2="152" stroke="rgba(26,25,21,0.1)"/>
  <text x="707.5" y="128" font-size="26" font-weight="600" fill="#1a1915" text-anchor="middle" letter-spacing="-0.02em">8</text>
  <text x="707.5" y="146" font-size="11" fill="rgba(26,25,21,0.4)" text-anchor="middle" font-style="italic">pic journalier</text>

  <line x1="60" y1="160" x2="800" y2="160" stroke="rgba(26,25,21,0.1)"/>

  <line x1="60" y1="370.0" x2="800" y2="370.0" stroke="rgba(26,25,21,0.05)"/>
  <text x="52" y="373.0" font-size="9" fill="rgba(26,25,21,0.3)" text-anchor="end" font-weight="500">0</text>
  <line x1="60" y1="331.9" x2="800" y2="331.9" stroke="rgba(26,25,21,0.05)"/>
  <text x="52" y="334.9" font-size="9" fill="rgba(26,25,21,0.3)" text-anchor="end" font-weight="500">12</text>
  <line x1="60" y1="293.8" x2="800" y2="293.8" stroke="rgba(26,25,21,0.05)"/>
  <text x="52" y="296.8" font-size="9" fill="rgba(26,25,21,0.3)" text-anchor="end" font-weight="500">24</text>
  <line x1="60" y1="255.7" x2="800" y2="255.7" stroke="rgba(26,25,21,0.05)"/>
  <text x="52" y="258.7" font-size="9" fill="rgba(26,25,21,0.3)" text-anchor="end" font-weight="500">36</text>
  <line x1="60" y1="217.6" x2="800" y2="217.6" stroke="rgba(26,25,21,0.05)"/>
  <text x="52" y="220.6" font-size="9" fill="rgba(26,25,21,0.3)" text-anchor="end" font-weight="500">48</text>
  <line x1="60" y1="179.5" x2="800" y2="179.5" stroke="rgba(26,25,21,0.05)"/>
  <text x="52" y="182.5" font-size="9" fill="rgba(26,25,21,0.3)" text-anchor="end" font-weight="500">60</text>
  <line x1="60" y1="170.0" x2="800" y2="170.0" stroke="rgba(26,25,21,0.05)"/>
  <text x="52" y="173.0" font-size="9" fill="rgba(26,25,21,0.3)" text-anchor="end" font-weight="500">63</text>
  <text x="60.0" y="388" font-size="9" fill="rgba(26,25,21,0.3)" font-weight="500" letter-spacing="0.03em">Jul 25</text>
  <text x="126.7" y="388" font-size="9" fill="rgba(26,25,21,0.3)" font-weight="500" letter-spacing="0.03em">Aug 25</text>
  <text x="183.5" y="388" font-size="9" fill="rgba(26,25,21,0.3)" font-weight="500" letter-spacing="0.03em">Sep 25</text>
  <text x="553.5" y="388" font-size="9" fill="rgba(26,25,21,0.3)" font-weight="500" letter-spacing="0.03em">Jan 26</text>
  <text x="751.3" y="388" font-size="9" fill="rgba(26,25,21,0.3)" font-weight="500" letter-spacing="0.03em">Mar 26</text>
  <text x="753.6" y="388" font-size="9" fill="rgba(26,25,21,0.3)" font-weight="500" letter-spacing="0.03em">Apr 26</text>

  <line x1="60" y1="170" x2="60" y2="370" stroke="rgba(26,25,21,0.12)"/>
  <line x1="60" y1="370" x2="800" y2="370" stroke="rgba(26,25,21,0.12)"/>

  <path d="M 60.0,370 L 60.0,366.8 L 62.4,363.7 L 126.7,360.5 L 140.3,357.3 L 183.5,354.1 L 553.5,351.0 L 751.3,347.8 L 752.0,344.6 L 752.1,341.4 L 752.1,338.3 L 752.2,335.1 L 752.5,331.9 L 752.6,328.7 L 752.7,325.6 L 753.6,322.4 L 754.4,319.2 L 756.6,316.0 L 757.8,312.9 L 759.1,309.7 L 760.1,306.5 L 762.2,303.3 L 764.7,300.2 L 766.6,297.0 L 767.1,293.8 L 767.5,290.6 L 768.5,287.5 L 770.4,284.3 L 773.0,281.1 L 773.0,277.9 L 773.1,274.8 L 773.2,271.6 L 773.2,268.4 L 773.9,265.2 L 774.9,262.1 L 776.3,258.9 L 776.7,255.7 L 778.0,252.5 L 779.1,249.4 L 779.6,246.2 L 780.5,243.0 L 781.5,239.8 L 782.0,236.7 L 782.0,233.5 L 782.4,230.3 L 783.8,227.1 L 786.9,224.0 L 787.4,220.8 L 787.9,217.6 L 789.3,214.4 L 789.7,211.3 L 789.9,208.1 L 790.9,204.9 L 791.9,201.7 L 792.1,198.6 L 792.5,195.4 L 793.0,192.2 L 794.0,189.0 L 794.4,185.9 L 795.2,182.7 L 795.9,179.5 L 796.4,176.3 L 797.5,173.2 L 800.0,170.0 L 800.0,370 Z" fill="url(#h)"/>
  <polyline points="60.0,366.8 62.4,363.7 126.7,360.5 140.3,357.3 183.5,354.1 553.5,351.0 751.3,347.8 752.0,344.6 752.1,341.4 752.1,338.3 752.2,335.1 752.5,331.9 752.6,328.7 752.7,325.6 753.6,322.4 754.4,319.2 756.6,316.0 757.8,312.9 759.1,309.7 760.1,306.5 762.2,303.3 764.7,300.2 766.6,297.0 767.1,293.8 767.5,290.6 768.5,287.5 770.4,284.3 773.0,281.1 773.0,277.9 773.1,274.8 773.2,271.6 773.2,268.4 773.9,265.2 774.9,262.1 776.3,258.9 776.7,255.7 778.0,252.5 779.1,249.4 779.6,246.2 780.5,243.0 781.5,239.8 782.0,236.7 782.0,233.5 782.4,230.3 783.8,227.1 786.9,224.0 787.4,220.8 787.9,217.6 789.3,214.4 789.7,211.3 789.9,208.1 790.9,204.9 791.9,201.7 792.1,198.6 792.5,195.4 793.0,192.2 794.0,189.0 794.4,185.9 795.2,182.7 795.9,179.5 796.4,176.3 797.5,173.2 800.0,170.0" fill="none" stroke="url(#lg)" stroke-width="2" stroke-linejoin="round" stroke-linecap="round"/>

  <circle cx="800.0" cy="170.0" r="4.5" fill="#8b2500"/>
  <circle cx="800.0" cy="170.0" r="2" fill="#f5f0e8"/>
  <circle cx="752.1" cy="338.3" r="2.5" fill="#c9a227" opacity="0.8"/>
  <text x="758.1" y="341.3" font-size="8" fill="#c9a227" font-weight="600">10</text>
  <circle cx="767.5" cy="290.6" r="2.5" fill="#c9a227" opacity="0.8"/>
  <text x="773.5" y="293.6" font-size="8" fill="#c9a227" font-weight="600">25</text>
  <circle cx="789.7" cy="211.3" r="2.5" fill="#c9a227" opacity="0.8"/>
  <text x="795.7" y="214.3" font-size="8" fill="#c9a227" font-weight="600">50</text>

  <line x1="60" y1="402" x2="800" y2="402" stroke="rgba(26,25,21,0.06)"/>
  <text x="60" y="414" font-size="8" fill="rgba(26,25,21,0.25)" font-style="italic">1.6 etoiles/sem · maj 19 Apr 2026 07:19 UTC</text>
  <text x="800" y="414" font-size="7" fill="rgba(26,25,21,0.18)" text-anchor="end" letter-spacing="0.1em">OBSERVATOIRE MMXXVI</text>

</svg>