<svg xmlns="http://www.w3.org/2000/svg" viewBox="0 0 840 420" width="840" height="420">
  <style>
    text { font-family: system-ui, -apple-system, 'Segoe UI', sans-serif; }
  </style>
  <defs>
    <pattern id="h" patternUnits="userSpaceOnUse" width="6" height="6" patternTransform="rotate(45)">
      <line x1="0" y1="0" x2="0" y2="6" stroke="rgba(26,25,21,0.07)" stroke-width="1"/>
    </pattern>
    <linearGradient id="lg" x1="0%" y1="0%" x2="100%" y2="0%">
      <stop offset="0%" stop-color="#1a1915" stop-opacity="0.4"/>
      <stop offset="30%" stop-color="#1a1915"/>
      <stop offset="100%" stop-color="#8b2500"/>
    </linearGradient>
  </defs>

  <rect width="840" height="420" rx="4" fill="#f5f0e8"/>
  <rect x=".5" y=".5" width="839" height="419" rx="4" fill="none" stroke="rgba(26,25,21,0.12)"/>

  <!-- Header -->
  <text x="60" y="32" font-size="11" font-weight="600" letter-spacing="0.14em" fill="#1a1915">OBSERVATOIRE</text>
  <text x="165" y="32" font-size="11" fill="#c9a227" letter-spacing="0.08em">·</text>
  <text x="178" y="32" font-size="11" font-weight="500" letter-spacing="0.06em" fill="rgba(26,25,21,0.45)">scub-france/Docling-Studio</text>

  <!-- Count -->
  <text x="800" y="30" font-size="34" font-weight="800" fill="#1a1915" text-anchor="end" letter-spacing="-0.02em">94</text>
  <text x="800" y="46" font-size="10" fill="rgba(26,25,21,0.35)" text-anchor="end" font-style="italic">etoiles observees</text>

  <!-- Weekly badge -->
  <rect x="704" y="54" width="96" height="20" rx="2" fill="none" stroke="rgba(201,162,39,0.35)"/>
  <text x="752" y="67" font-size="9" font-weight="600" fill="#c9a227" text-anchor="middle" letter-spacing="0.04em">↗ +20 THIS WEEK</text>

  <line x1="60" y1="90" x2="800" y2="90" stroke="rgba(26,25,21,0.1)"/>

  <!-- Stats row -->
  <text x="152.5" y="128" font-size="26" font-weight="600" fill="#1a1915" text-anchor="middle" letter-spacing="-0.02em">94</text>
  <text x="152.5" y="146" font-size="11" fill="rgba(26,25,21,0.4)" text-anchor="middle" font-style="italic">sur la periode</text>
  <line x1="245.0" y1="98" x2="245.0" y2="152" stroke="rgba(26,25,21,0.1)"/>
  <text x="337.5" y="128" font-size="26" font-weight="600" fill="#1a1915" text-anchor="middle" letter-spacing="-0.02em">+20</text>
  <text x="337.5" y="146" font-size="11" fill="rgba(26,25,21,0.4)" text-anchor="middle" font-style="italic">cette semaine</text>
  <line x1="430.0" y1="98" x2="430.0" y2="152" stroke="rgba(26,25,21,0.1)"/>
  <text x="522.5" y="128" font-size="26" font-weight="600" fill="#1a1915" text-anchor="middle" letter-spacing="-0.02em">2.3</text>
  <text x="522.5" y="146" font-size="11" fill="rgba(26,25,21,0.4)" text-anchor="middle" font-style="italic">moy. / semaine</text>
  <line x1="615.0" y1="98" x2="615.0" y2="152" stroke="rgba(26,25,21,0.1)"/>
  <text x="707.5" y="128" font-size="26" font-weight="600" fill="#1a1915" text-anchor="middle" letter-spacing="-0.02em">8</text>
  <text x="707.5" y="146" font-size="11" fill="rgba(26,25,21,0.4)" text-anchor="middle" font-style="italic">pic journalier</text>

  <line x1="60" y1="160" x2="800" y2="160" stroke="rgba(26,25,21,0.1)"/>

  <line x1="60" y1="370.0" x2="800" y2="370.0" stroke="rgba(26,25,21,0.05)"/>
  <text x="52" y="373.0" font-size="9" fill="rgba(26,25,21,0.3)" text-anchor="end" font-weight="500">0</text>
  <line x1="60" y1="331.7" x2="800" y2="331.7" stroke="rgba(26,25,21,0.05)"/>
  <text x="52" y="334.7" font-size="9" fill="rgba(26,25,21,0.3)" text-anchor="end" font-weight="500">18</text>
  <line x1="60" y1="293.4" x2="800" y2="293.4" stroke="rgba(26,25,21,0.05)"/>
  <text x="52" y="296.4" font-size="9" fill="rgba(26,25,21,0.3)" text-anchor="end" font-weight="500">36</text>
  <line x1="60" y1="255.1" x2="800" y2="255.1" stroke="rgba(26,25,21,0.05)"/>
  <text x="52" y="258.1" font-size="9" fill="rgba(26,25,21,0.3)" text-anchor="end" font-weight="500">54</text>
  <line x1="60" y1="216.8" x2="800" y2="216.8" stroke="rgba(26,25,21,0.05)"/>
  <text x="52" y="219.8" font-size="9" fill="rgba(26,25,21,0.3)" text-anchor="end" font-weight="500">72</text>
  <line x1="60" y1="178.5" x2="800" y2="178.5" stroke="rgba(26,25,21,0.05)"/>
  <text x="52" y="181.5" font-size="9" fill="rgba(26,25,21,0.3)" text-anchor="end" font-weight="500">90</text>
  <line x1="60" y1="170.0" x2="800" y2="170.0" stroke="rgba(26,25,21,0.05)"/>
  <text x="52" y="173.0" font-size="9" fill="rgba(26,25,21,0.3)" text-anchor="end" font-weight="500">94</text>
  <text x="60.0" y="388" font-size="9" fill="rgba(26,25,21,0.3)" font-weight="500" letter-spacing="0.03em">Jul 25</text>
  <text x="123.5" y="388" font-size="9" fill="rgba(26,25,21,0.3)" font-weight="500" letter-spacing="0.03em">Aug 25</text>
  <text x="177.5" y="388" font-size="9" fill="rgba(26,25,21,0.3)" font-weight="500" letter-spacing="0.03em">Sep 25</text>
  <text x="529.5" y="388" font-size="9" fill="rgba(26,25,21,0.3)" font-weight="500" letter-spacing="0.03em">Jan 26</text>
  <text x="717.8" y="388" font-size="9" fill="rgba(26,25,21,0.3)" font-weight="500" letter-spacing="0.03em">Mar 26</text>
  <text x="719.9" y="388" font-size="9" fill="rgba(26,25,21,0.3)" font-weight="500" letter-spacing="0.03em">Apr 26</text>
  <text x="796.7" y="388" font-size="9" fill="rgba(26,25,21,0.3)" font-weight="500" letter-spacing="0.03em">May 26</text>

  <line x1="60" y1="170" x2="60" y2="370" stroke="rgba(26,25,21,0.12)"/>
  <line x1="60" y1="370" x2="800" y2="370" stroke="rgba(26,25,21,0.12)"/>

  <path d="M 60.0,370 L 60.0,367.9 L 62.2,365.7 L 123.5,363.6 L 136.4,361.5 L 177.5,359.4 L 529.5,357.2 L 717.8,355.1 L 718.4,353.0 L 718.5,350.9 L 718.5,348.7 L 718.6,346.6 L 718.9,344.5 L 719.0,342.3 L 719.1,340.2 L 719.9,338.1 L 720.7,336.0 L 722.8,333.8 L 723.9,331.7 L 725.1,329.6 L 726.1,327.4 L 728.1,325.3 L 730.5,323.2 L 732.3,321.1 L 732.8,318.9 L 734.1,316.8 L 735.9,314.7 L 738.4,312.6 L 738.4,310.4 L 738.5,308.3 L 738.5,306.2 L 738.6,304.0 L 739.3,301.9 L 740.2,299.8 L 741.5,297.7 L 741.9,295.5 L 743.1,293.4 L 744.1,291.3 L 744.7,289.1 L 745.5,287.0 L 746.5,284.9 L 746.9,282.8 L 747.0,280.6 L 747.3,278.5 L 748.7,276.4 L 751.6,274.3 L 752.0,272.1 L 752.6,270.0 L 753.9,267.9 L 754.3,265.7 L 754.5,263.6 L 755.4,261.5 L 756.4,259.4 L 756.5,257.2 L 756.9,255.1 L 757.4,253.0 L 758.3,250.9 L 758.8,248.7 L 759.5,246.6 L 760.2,244.5 L 760.7,242.3 L 761.7,240.2 L 764.1,238.1 L 769.4,236.0 L 771.3,233.8 L 771.3,231.7 L 774.3,229.6 L 775.1,227.4 L 775.3,225.3 L 775.3,223.2 L 775.3,221.1 L 777.4,218.9 L 779.1,216.8 L 779.3,214.7 L 780.5,212.6 L 784.5,210.4 L 785.0,208.3 L 785.8,206.2 L 785.8,204.0 L 789.9,201.9 L 790.0,199.8 L 793.0,197.7 L 793.0,195.5 L 793.7,193.4 L 794.2,191.3 L 794.4,189.1 L 794.6,187.0 L 795.2,184.9 L 795.5,182.8 L 795.7,180.6 L 796.7,178.5 L 797.6,176.4 L 798.2,174.3 L 799.0,172.1 L 800.0,170.0 L 800.0,370 Z" fill="url(#h)"/>
  <polyline points="60.0,367.9 62.2,365.7 123.5,363.6 136.4,361.5 177.5,359.4 529.5,357.2 717.8,355.1 718.4,353.0 718.5,350.9 718.5,348.7 718.6,346.6 718.9,344.5 719.0,342.3 719.1,340.2 719.9,338.1 720.7,336.0 722.8,333.8 723.9,331.7 725.1,329.6 726.1,327.4 728.1,325.3 730.5,323.2 732.3,321.1 732.8,318.9 734.1,316.8 735.9,314.7 738.4,312.6 738.4,310.4 738.5,308.3 738.5,306.2 738.6,304.0 739.3,301.9 740.2,299.8 741.5,297.7 741.9,295.5 743.1,293.4 744.1,291.3 744.7,289.1 745.5,287.0 746.5,284.9 746.9,282.8 747.0,280.6 747.3,278.5 748.7,276.4 751.6,274.3 752.0,272.1 752.6,270.0 753.9,267.9 754.3,265.7 754.5,263.6 755.4,261.5 756.4,259.4 756.5,257.2 756.9,255.1 757.4,253.0 758.3,250.9 758.8,248.7 759.5,246.6 760.2,244.5 760.7,242.3 761.7,240.2 764.1,238.1 769.4,236.0 771.3,233.8 771.3,231.7 774.3,229.6 775.1,227.4 775.3,225.3 775.3,223.2 775.3,221.1 777.4,218.9 779.1,216.8 779.3,214.7 780.5,212.6 784.5,210.4 785.0,208.3 785.8,206.2 785.8,204.0 789.9,201.9 790.0,199.8 793.0,197.7 793.0,195.5 793.7,193.4 794.2,191.3 794.4,189.1 794.6,187.0 795.2,184.9 795.5,182.8 795.7,180.6 796.7,178.5 797.6,176.4 798.2,174.3 799.0,172.1 800.0,170.0" fill="none" stroke="url(#lg)" stroke-width="2" stroke-linejoin="round" stroke-linecap="round"/>

  <circle cx="800.0" cy="170.0" r="4.5" fill="#8b2500"/>
  <circle cx="800.0" cy="170.0" r="2" fill="#f5f0e8"/>
  <circle cx="718.5" cy="348.7" r="2.5" fill="#c9a227" opacity="0.8"/>
  <text x="724.5" y="351.7" font-size="8" fill="#c9a227" font-weight="600">10</text>
  <circle cx="734.1" cy="316.8" r="2.5" fill="#c9a227" opacity="0.8"/>
  <text x="740.1" y="319.8" font-size="8" fill="#c9a227" font-weight="600">25</text>
  <circle cx="754.5" cy="263.6" r="2.5" fill="#c9a227" opacity="0.8"/>
  <text x="760.5" y="266.6" font-size="8" fill="#c9a227" font-weight="600">50</text>

  <line x1="60" y1="402" x2="800" y2="402" stroke="rgba(26,25,21,0.06)"/>
  <text x="60" y="414" font-size="8" fill="rgba(26,25,21,0.25)" font-style="italic">2.3 etoiles/sem · maj 02 May 2026 18:58 UTC</text>
  <text x="800" y="414" font-size="7" fill="rgba(26,25,21,0.18)" text-anchor="end" letter-spacing="0.1em">OBSERVATOIRE MMXXVI</text>

</svg>