<svg xmlns="http://www.w3.org/2000/svg" viewBox="0 0 840 320" width="840" height="320">
  <style>
    text { font-family: system-ui, -apple-system, 'Segoe UI', sans-serif; }
  </style>
  <defs>
    <pattern id="h" patternUnits="userSpaceOnUse" width="6" height="6" patternTransform="rotate(45)">
      <line x1="0" y1="0" x2="0" y2="6" stroke="rgba(26,25,21,0.07)" stroke-width="1"/>
    </pattern>
    <linearGradient id="lg" x1="0%" y1="0%" x2="100%" y2="0%">
      <stop offset="0%" stop-color="#1a1915" stop-opacity="0.4"/>
      <stop offset="30%" stop-color="#1a1915"/>
      <stop offset="100%" stop-color="#8b2500"/>
    </linearGradient>
  </defs>

  <rect width="840" height="320" rx="4" fill="#f5f0e8"/>
  <rect x=".5" y=".5" width="839" height="319" rx="4" fill="none" stroke="rgba(26,25,21,0.12)"/>

  <!-- Header -->
  <text x="60" y="32" font-size="11" font-weight="600" letter-spacing="0.14em" fill="#1a1915">OBSERVATOIRE</text>
  <text x="165" y="32" font-size="11" fill="#c9a227" letter-spacing="0.08em">·</text>
  <text x="178" y="32" font-size="11" font-weight="500" letter-spacing="0.06em" fill="rgba(26,25,21,0.45)">scub-france/Docling-Studio</text>

  <!-- Count -->
  <text x="800" y="30" font-size="34" font-weight="800" fill="#1a1915" text-anchor="end" letter-spacing="-0.02em">59</text>
  <text x="800" y="46" font-size="10" fill="rgba(26,25,21,0.35)" text-anchor="end" font-style="italic">etoiles observees</text>

  <!-- Weekly badge -->
  <rect x="704" y="54" width="96" height="20" rx="2" fill="none" stroke="rgba(201,162,39,0.35)"/>
  <text x="752" y="67" font-size="9" font-weight="600" fill="#c9a227" text-anchor="middle" letter-spacing="0.04em">↗ +23 THIS WEEK</text>

  <line x1="60" y1="74" x2="800" y2="74" stroke="rgba(26,25,21,0.1)"/>

  <line x1="60" y1="270.0" x2="800" y2="270.0" stroke="rgba(26,25,21,0.05)"/>
  <text x="52" y="273.0" font-size="9" fill="rgba(26,25,21,0.3)" text-anchor="end" font-weight="500">0</text>
  <line x1="60" y1="234.6" x2="800" y2="234.6" stroke="rgba(26,25,21,0.05)"/>
  <text x="52" y="237.6" font-size="9" fill="rgba(26,25,21,0.3)" text-anchor="end" font-weight="500">11</text>
  <line x1="60" y1="199.2" x2="800" y2="199.2" stroke="rgba(26,25,21,0.05)"/>
  <text x="52" y="202.2" font-size="9" fill="rgba(26,25,21,0.3)" text-anchor="end" font-weight="500">22</text>
  <line x1="60" y1="163.7" x2="800" y2="163.7" stroke="rgba(26,25,21,0.05)"/>
  <text x="52" y="166.7" font-size="9" fill="rgba(26,25,21,0.3)" text-anchor="end" font-weight="500">33</text>
  <line x1="60" y1="128.3" x2="800" y2="128.3" stroke="rgba(26,25,21,0.05)"/>
  <text x="52" y="131.3" font-size="9" fill="rgba(26,25,21,0.3)" text-anchor="end" font-weight="500">44</text>
  <line x1="60" y1="92.9" x2="800" y2="92.9" stroke="rgba(26,25,21,0.05)"/>
  <text x="52" y="95.9" font-size="9" fill="rgba(26,25,21,0.3)" text-anchor="end" font-weight="500">55</text>
  <line x1="60" y1="80.0" x2="800" y2="80.0" stroke="rgba(26,25,21,0.05)"/>
  <text x="52" y="83.0" font-size="9" fill="rgba(26,25,21,0.3)" text-anchor="end" font-weight="500">59</text>
  <text x="60.0" y="288" font-size="9" fill="rgba(26,25,21,0.3)" font-weight="500" letter-spacing="0.03em">Jul 25</text>
  <text x="127.2" y="288" font-size="9" fill="rgba(26,25,21,0.3)" font-weight="500" letter-spacing="0.03em">Aug 25</text>
  <text x="184.3" y="288" font-size="9" fill="rgba(26,25,21,0.3)" font-weight="500" letter-spacing="0.03em">Sep 25</text>
  <text x="556.7" y="288" font-size="9" fill="rgba(26,25,21,0.3)" font-weight="500" letter-spacing="0.03em">Jan 26</text>
  <text x="755.8" y="288" font-size="9" fill="rgba(26,25,21,0.3)" font-weight="500" letter-spacing="0.03em">Mar 26</text>
  <text x="758.1" y="288" font-size="9" fill="rgba(26,25,21,0.3)" font-weight="500" letter-spacing="0.03em">Apr 26</text>

  <line x1="60" y1="80" x2="60" y2="270" stroke="rgba(26,25,21,0.12)"/>
  <line x1="60" y1="270" x2="800" y2="270" stroke="rgba(26,25,21,0.12)"/>

  <path d="M 60.0,270 L 60.0,266.8 L 62.4,263.6 L 127.2,260.3 L 140.8,257.1 L 184.3,253.9 L 556.7,250.7 L 755.8,247.5 L 756.5,244.2 L 756.6,241.0 L 756.6,237.8 L 756.7,234.6 L 757.0,231.4 L 757.1,228.1 L 757.3,224.9 L 758.1,221.7 L 759.0,218.5 L 761.1,215.3 L 762.3,212.0 L 763.6,208.8 L 764.7,205.6 L 766.7,202.4 L 769.3,199.2 L 771.2,195.9 L 771.7,192.7 L 772.1,189.5 L 773.1,186.3 L 775.1,183.1 L 777.6,179.8 L 777.7,176.6 L 777.8,173.4 L 777.8,170.2 L 777.8,166.9 L 778.6,163.7 L 779.6,160.5 L 780.9,157.3 L 781.3,154.1 L 782.7,150.8 L 783.7,147.6 L 784.3,144.4 L 785.2,141.2 L 786.2,138.0 L 786.7,134.7 L 786.7,131.5 L 787.1,128.3 L 788.5,125.1 L 791.7,121.9 L 792.1,118.6 L 792.6,115.4 L 794.0,112.2 L 794.4,109.0 L 794.7,105.8 L 795.7,102.5 L 796.7,99.3 L 796.8,96.1 L 797.2,92.9 L 797.8,89.7 L 798.8,86.4 L 799.2,83.2 L 800.0,80.0 L 800.0,270 Z" fill="url(#h)"/>
  <polyline points="60.0,266.8 62.4,263.6 127.2,260.3 140.8,257.1 184.3,253.9 556.7,250.7 755.8,247.5 756.5,244.2 756.6,241.0 756.6,237.8 756.7,234.6 757.0,231.4 757.1,228.1 757.3,224.9 758.1,221.7 759.0,218.5 761.1,215.3 762.3,212.0 763.6,208.8 764.7,205.6 766.7,202.4 769.3,199.2 771.2,195.9 771.7,192.7 772.1,189.5 773.1,186.3 775.1,183.1 777.6,179.8 777.7,176.6 777.8,173.4 777.8,170.2 777.8,166.9 778.6,163.7 779.6,160.5 780.9,157.3 781.3,154.1 782.7,150.8 783.7,147.6 784.3,144.4 785.2,141.2 786.2,138.0 786.7,134.7 786.7,131.5 787.1,128.3 788.5,125.1 791.7,121.9 792.1,118.6 792.6,115.4 794.0,112.2 794.4,109.0 794.7,105.8 795.7,102.5 796.7,99.3 796.8,96.1 797.2,92.9 797.8,89.7 798.8,86.4 799.2,83.2 800.0,80.0" fill="none" stroke="url(#lg)" stroke-width="2" stroke-linejoin="round" stroke-linecap="round"/>

  <circle cx="800.0" cy="80.0" r="4.5" fill="#8b2500"/>
  <circle cx="800.0" cy="80.0" r="2" fill="#f5f0e8"/>
  <circle cx="756.6" cy="237.8" r="2.5" fill="#c9a227" opacity="0.8"/>
  <text x="762.6" y="240.8" font-size="8" fill="#c9a227" font-weight="600">10</text>
  <circle cx="772.1" cy="189.5" r="2.5" fill="#c9a227" opacity="0.8"/>
  <text x="778.1" y="192.5" font-size="8" fill="#c9a227" font-weight="600">25</text>
  <circle cx="794.4" cy="109.0" r="2.5" fill="#c9a227" opacity="0.8"/>
  <text x="800.4" y="112.0" font-size="8" fill="#c9a227" font-weight="600">50</text>

  <line x1="60" y1="302" x2="800" y2="302" stroke="rgba(26,25,21,0.06)"/>
  <text x="60" y="314" font-size="8" fill="rgba(26,25,21,0.25)" font-style="italic">1.5 etoiles/sem · maj 16 Apr 2026 19:13 UTC</text>
  <text x="800" y="314" font-size="7" fill="rgba(26,25,21,0.18)" text-anchor="end" letter-spacing="0.1em">OBSERVATOIRE MMXXVI</text>

</svg>