<svg xmlns="http://www.w3.org/2000/svg" viewBox="0 0 840 420" width="840" height="420">
  <style>
    text { font-family: system-ui, -apple-system, 'Segoe UI', sans-serif; }
  </style>
  <defs>
    <pattern id="h" patternUnits="userSpaceOnUse" width="6" height="6" patternTransform="rotate(45)">
      <line x1="0" y1="0" x2="0" y2="6" stroke="rgba(26,25,21,0.07)" stroke-width="1"/>
    </pattern>
    <linearGradient id="lg" x1="0%" y1="0%" x2="100%" y2="0%">
      <stop offset="0%" stop-color="#1a1915" stop-opacity="0.4"/>
      <stop offset="30%" stop-color="#1a1915"/>
      <stop offset="100%" stop-color="#8b2500"/>
    </linearGradient>
  </defs>

  <rect width="840" height="420" rx="4" fill="#f5f0e8"/>
  <rect x=".5" y=".5" width="839" height="419" rx="4" fill="none" stroke="rgba(26,25,21,0.12)"/>

  <!-- Header -->
  <text x="60" y="32" font-size="11" font-weight="600" letter-spacing="0.14em" fill="#1a1915">OBSERVATOIRE</text>
  <text x="165" y="32" font-size="11" fill="#c9a227" letter-spacing="0.08em">·</text>
  <text x="178" y="32" font-size="11" font-weight="500" letter-spacing="0.06em" fill="rgba(26,25,21,0.45)">scub-france/Docling-Studio</text>

  <!-- Count -->
  <text x="800" y="30" font-size="34" font-weight="800" fill="#1a1915" text-anchor="end" letter-spacing="-0.02em">95</text>
  <text x="800" y="46" font-size="10" fill="rgba(26,25,21,0.35)" text-anchor="end" font-style="italic">etoiles observees</text>

  <!-- Weekly badge -->
  <rect x="704" y="54" width="96" height="20" rx="2" fill="none" stroke="rgba(201,162,39,0.35)"/>
  <text x="752" y="67" font-size="9" font-weight="600" fill="#c9a227" text-anchor="middle" letter-spacing="0.04em">↗ +19 THIS WEEK</text>

  <line x1="60" y1="90" x2="800" y2="90" stroke="rgba(26,25,21,0.1)"/>

  <!-- Stats row -->
  <text x="152.5" y="128" font-size="26" font-weight="600" fill="#1a1915" text-anchor="middle" letter-spacing="-0.02em">95</text>
  <text x="152.5" y="146" font-size="11" fill="rgba(26,25,21,0.4)" text-anchor="middle" font-style="italic">sur la periode</text>
  <line x1="245.0" y1="98" x2="245.0" y2="152" stroke="rgba(26,25,21,0.1)"/>
  <text x="337.5" y="128" font-size="26" font-weight="600" fill="#1a1915" text-anchor="middle" letter-spacing="-0.02em">+19</text>
  <text x="337.5" y="146" font-size="11" fill="rgba(26,25,21,0.4)" text-anchor="middle" font-style="italic">cette semaine</text>
  <line x1="430.0" y1="98" x2="430.0" y2="152" stroke="rgba(26,25,21,0.1)"/>
  <text x="522.5" y="128" font-size="26" font-weight="600" fill="#1a1915" text-anchor="middle" letter-spacing="-0.02em">2.3</text>
  <text x="522.5" y="146" font-size="11" fill="rgba(26,25,21,0.4)" text-anchor="middle" font-style="italic">moy. / semaine</text>
  <line x1="615.0" y1="98" x2="615.0" y2="152" stroke="rgba(26,25,21,0.1)"/>
  <text x="707.5" y="128" font-size="26" font-weight="600" fill="#1a1915" text-anchor="middle" letter-spacing="-0.02em">8</text>
  <text x="707.5" y="146" font-size="11" fill="rgba(26,25,21,0.4)" text-anchor="middle" font-style="italic">pic journalier</text>

  <line x1="60" y1="160" x2="800" y2="160" stroke="rgba(26,25,21,0.1)"/>

  <line x1="60" y1="370.0" x2="800" y2="370.0" stroke="rgba(26,25,21,0.05)"/>
  <text x="52" y="373.0" font-size="9" fill="rgba(26,25,21,0.3)" text-anchor="end" font-weight="500">0</text>
  <line x1="60" y1="330.0" x2="800" y2="330.0" stroke="rgba(26,25,21,0.05)"/>
  <text x="52" y="333.0" font-size="9" fill="rgba(26,25,21,0.3)" text-anchor="end" font-weight="500">19</text>
  <line x1="60" y1="290.0" x2="800" y2="290.0" stroke="rgba(26,25,21,0.05)"/>
  <text x="52" y="293.0" font-size="9" fill="rgba(26,25,21,0.3)" text-anchor="end" font-weight="500">38</text>
  <line x1="60" y1="250.0" x2="800" y2="250.0" stroke="rgba(26,25,21,0.05)"/>
  <text x="52" y="253.0" font-size="9" fill="rgba(26,25,21,0.3)" text-anchor="end" font-weight="500">57</text>
  <line x1="60" y1="210.0" x2="800" y2="210.0" stroke="rgba(26,25,21,0.05)"/>
  <text x="52" y="213.0" font-size="9" fill="rgba(26,25,21,0.3)" text-anchor="end" font-weight="500">76</text>
  <line x1="60" y1="170.0" x2="800" y2="170.0" stroke="rgba(26,25,21,0.05)"/>
  <text x="52" y="173.0" font-size="9" fill="rgba(26,25,21,0.3)" text-anchor="end" font-weight="500">95</text>
  <text x="60.0" y="388" font-size="9" fill="rgba(26,25,21,0.3)" font-weight="500" letter-spacing="0.03em">Jul 25</text>
  <text x="123.2" y="388" font-size="9" fill="rgba(26,25,21,0.3)" font-weight="500" letter-spacing="0.03em">Aug 25</text>
  <text x="177.1" y="388" font-size="9" fill="rgba(26,25,21,0.3)" font-weight="500" letter-spacing="0.03em">Sep 25</text>
  <text x="527.6" y="388" font-size="9" fill="rgba(26,25,21,0.3)" font-weight="500" letter-spacing="0.03em">Jan 26</text>
  <text x="715.1" y="388" font-size="9" fill="rgba(26,25,21,0.3)" font-weight="500" letter-spacing="0.03em">Mar 26</text>
  <text x="717.2" y="388" font-size="9" fill="rgba(26,25,21,0.3)" font-weight="500" letter-spacing="0.03em">Apr 26</text>
  <text x="793.7" y="388" font-size="9" fill="rgba(26,25,21,0.3)" font-weight="500" letter-spacing="0.03em">May 26</text>

  <line x1="60" y1="170" x2="60" y2="370" stroke="rgba(26,25,21,0.12)"/>
  <line x1="60" y1="370" x2="800" y2="370" stroke="rgba(26,25,21,0.12)"/>

  <path d="M 60.0,370 L 60.0,367.9 L 62.2,365.8 L 123.2,363.7 L 136.1,361.6 L 177.1,359.5 L 527.6,357.4 L 715.1,355.3 L 715.7,353.2 L 715.8,351.1 L 715.9,348.9 L 716.0,346.8 L 716.2,344.7 L 716.3,342.6 L 716.4,340.5 L 717.2,338.4 L 718.1,336.3 L 720.1,334.2 L 721.2,332.1 L 722.4,330.0 L 723.4,327.9 L 725.4,325.8 L 727.7,323.7 L 729.6,321.6 L 730.1,319.5 L 731.4,317.4 L 733.2,315.3 L 735.6,313.2 L 735.7,311.1 L 735.7,308.9 L 735.8,306.8 L 735.8,304.7 L 736.5,302.6 L 737.4,300.5 L 738.7,298.4 L 739.1,296.3 L 740.4,294.2 L 741.4,292.1 L 741.9,290.0 L 742.7,287.9 L 743.7,285.8 L 744.1,283.7 L 744.2,281.6 L 744.5,279.5 L 745.9,277.4 L 748.8,275.3 L 749.2,273.2 L 749.8,271.1 L 751.1,268.9 L 751.5,266.8 L 751.7,264.7 L 752.6,262.6 L 753.5,260.5 L 753.7,258.4 L 754.1,256.3 L 754.6,254.2 L 755.5,252.1 L 755.9,250.0 L 756.7,247.9 L 757.3,245.8 L 757.8,243.7 L 758.8,241.6 L 761.2,239.5 L 766.5,237.4 L 768.4,235.3 L 768.4,233.2 L 771.4,231.1 L 772.2,228.9 L 772.4,226.8 L 772.4,224.7 L 772.4,222.6 L 774.5,220.5 L 776.2,218.4 L 776.4,216.3 L 777.6,214.2 L 781.5,212.1 L 782.1,210.0 L 782.8,207.9 L 782.8,205.8 L 786.9,203.7 L 787.0,201.6 L 790.0,199.5 L 790.0,197.4 L 790.7,195.3 L 791.3,193.2 L 791.4,191.1 L 791.6,188.9 L 792.2,186.8 L 792.5,184.7 L 792.7,182.6 L 793.7,180.5 L 794.6,178.4 L 795.2,176.3 L 796.0,174.2 L 797.0,172.1 L 800.0,170.0 L 800.0,370 Z" fill="url(#h)"/>
  <polyline points="60.0,367.9 62.2,365.8 123.2,363.7 136.1,361.6 177.1,359.5 527.6,357.4 715.1,355.3 715.7,353.2 715.8,351.1 715.9,348.9 716.0,346.8 716.2,344.7 716.3,342.6 716.4,340.5 717.2,338.4 718.1,336.3 720.1,334.2 721.2,332.1 722.4,330.0 723.4,327.9 725.4,325.8 727.7,323.7 729.6,321.6 730.1,319.5 731.4,317.4 733.2,315.3 735.6,313.2 735.7,311.1 735.7,308.9 735.8,306.8 735.8,304.7 736.5,302.6 737.4,300.5 738.7,298.4 739.1,296.3 740.4,294.2 741.4,292.1 741.9,290.0 742.7,287.9 743.7,285.8 744.1,283.7 744.2,281.6 744.5,279.5 745.9,277.4 748.8,275.3 749.2,273.2 749.8,271.1 751.1,268.9 751.5,266.8 751.7,264.7 752.6,262.6 753.5,260.5 753.7,258.4 754.1,256.3 754.6,254.2 755.5,252.1 755.9,250.0 756.7,247.9 757.3,245.8 757.8,243.7 758.8,241.6 761.2,239.5 766.5,237.4 768.4,235.3 768.4,233.2 771.4,231.1 772.2,228.9 772.4,226.8 772.4,224.7 772.4,222.6 774.5,220.5 776.2,218.4 776.4,216.3 777.6,214.2 781.5,212.1 782.1,210.0 782.8,207.9 782.8,205.8 786.9,203.7 787.0,201.6 790.0,199.5 790.0,197.4 790.7,195.3 791.3,193.2 791.4,191.1 791.6,188.9 792.2,186.8 792.5,184.7 792.7,182.6 793.7,180.5 794.6,178.4 795.2,176.3 796.0,174.2 797.0,172.1 800.0,170.0" fill="none" stroke="url(#lg)" stroke-width="2" stroke-linejoin="round" stroke-linecap="round"/>

  <circle cx="800.0" cy="170.0" r="4.5" fill="#8b2500"/>
  <circle cx="800.0" cy="170.0" r="2" fill="#f5f0e8"/>
  <circle cx="715.9" cy="348.9" r="2.5" fill="#c9a227" opacity="0.8"/>
  <text x="721.9" y="351.9" font-size="8" fill="#c9a227" font-weight="600">10</text>
  <circle cx="731.4" cy="317.4" r="2.5" fill="#c9a227" opacity="0.8"/>
  <text x="737.4" y="320.4" font-size="8" fill="#c9a227" font-weight="600">25</text>
  <circle cx="751.7" cy="264.7" r="2.5" fill="#c9a227" opacity="0.8"/>
  <text x="757.7" y="267.7" font-size="8" fill="#c9a227" font-weight="600">50</text>

  <line x1="60" y1="402" x2="800" y2="402" stroke="rgba(26,25,21,0.06)"/>
  <text x="60" y="414" font-size="8" fill="rgba(26,25,21,0.25)" font-style="italic">2.3 etoiles/sem · maj 03 May 2026 13:09 UTC</text>
  <text x="800" y="414" font-size="7" fill="rgba(26,25,21,0.18)" text-anchor="end" letter-spacing="0.1em">OBSERVATOIRE MMXXVI</text>

</svg>