<svg xmlns="http://www.w3.org/2000/svg" viewBox="0 0 840 420" width="840" height="420">
  <style>
    text { font-family: system-ui, -apple-system, 'Segoe UI', sans-serif; }
  </style>
  <defs>
    <pattern id="h" patternUnits="userSpaceOnUse" width="6" height="6" patternTransform="rotate(45)">
      <line x1="0" y1="0" x2="0" y2="6" stroke="rgba(26,25,21,0.07)" stroke-width="1"/>
    </pattern>
    <linearGradient id="lg" x1="0%" y1="0%" x2="100%" y2="0%">
      <stop offset="0%" stop-color="#1a1915" stop-opacity="0.4"/>
      <stop offset="30%" stop-color="#1a1915"/>
      <stop offset="100%" stop-color="#8b2500"/>
    </linearGradient>
  </defs>

  <rect width="840" height="420" rx="4" fill="#f5f0e8"/>
  <rect x=".5" y=".5" width="839" height="419" rx="4" fill="none" stroke="rgba(26,25,21,0.12)"/>

  <!-- Header -->
  <text x="60" y="32" font-size="11" font-weight="600" letter-spacing="0.14em" fill="#1a1915">OBSERVATOIRE</text>
  <text x="165" y="32" font-size="11" fill="#c9a227" letter-spacing="0.08em">·</text>
  <text x="178" y="32" font-size="11" font-weight="500" letter-spacing="0.06em" fill="rgba(26,25,21,0.45)">scub-france/Docling-Studio</text>

  <!-- Count -->
  <text x="800" y="30" font-size="34" font-weight="800" fill="#1a1915" text-anchor="end" letter-spacing="-0.02em">86</text>
  <text x="800" y="46" font-size="10" fill="rgba(26,25,21,0.35)" text-anchor="end" font-style="italic">etoiles observees</text>

  <!-- Weekly badge -->
  <rect x="704" y="54" width="96" height="20" rx="2" fill="none" stroke="rgba(201,162,39,0.35)"/>
  <text x="752" y="67" font-size="9" font-weight="600" fill="#c9a227" text-anchor="middle" letter-spacing="0.04em">↗ +16 THIS WEEK</text>

  <line x1="60" y1="90" x2="800" y2="90" stroke="rgba(26,25,21,0.1)"/>

  <!-- Stats row -->
  <text x="152.5" y="128" font-size="26" font-weight="600" fill="#1a1915" text-anchor="middle" letter-spacing="-0.02em">86</text>
  <text x="152.5" y="146" font-size="11" fill="rgba(26,25,21,0.4)" text-anchor="middle" font-style="italic">sur la periode</text>
  <line x1="245.0" y1="98" x2="245.0" y2="152" stroke="rgba(26,25,21,0.1)"/>
  <text x="337.5" y="128" font-size="26" font-weight="600" fill="#1a1915" text-anchor="middle" letter-spacing="-0.02em">+16</text>
  <text x="337.5" y="146" font-size="11" fill="rgba(26,25,21,0.4)" text-anchor="middle" font-style="italic">cette semaine</text>
  <line x1="430.0" y1="98" x2="430.0" y2="152" stroke="rgba(26,25,21,0.1)"/>
  <text x="522.5" y="128" font-size="26" font-weight="600" fill="#1a1915" text-anchor="middle" letter-spacing="-0.02em">2.1</text>
  <text x="522.5" y="146" font-size="11" fill="rgba(26,25,21,0.4)" text-anchor="middle" font-style="italic">moy. / semaine</text>
  <line x1="615.0" y1="98" x2="615.0" y2="152" stroke="rgba(26,25,21,0.1)"/>
  <text x="707.5" y="128" font-size="26" font-weight="600" fill="#1a1915" text-anchor="middle" letter-spacing="-0.02em">8</text>
  <text x="707.5" y="146" font-size="11" fill="rgba(26,25,21,0.4)" text-anchor="middle" font-style="italic">pic journalier</text>

  <line x1="60" y1="160" x2="800" y2="160" stroke="rgba(26,25,21,0.1)"/>

  <line x1="60" y1="370.0" x2="800" y2="370.0" stroke="rgba(26,25,21,0.05)"/>
  <text x="52" y="373.0" font-size="9" fill="rgba(26,25,21,0.3)" text-anchor="end" font-weight="500">0</text>
  <line x1="60" y1="330.5" x2="800" y2="330.5" stroke="rgba(26,25,21,0.05)"/>
  <text x="52" y="333.5" font-size="9" fill="rgba(26,25,21,0.3)" text-anchor="end" font-weight="500">17</text>
  <line x1="60" y1="290.9" x2="800" y2="290.9" stroke="rgba(26,25,21,0.05)"/>
  <text x="52" y="293.9" font-size="9" fill="rgba(26,25,21,0.3)" text-anchor="end" font-weight="500">34</text>
  <line x1="60" y1="251.4" x2="800" y2="251.4" stroke="rgba(26,25,21,0.05)"/>
  <text x="52" y="254.4" font-size="9" fill="rgba(26,25,21,0.3)" text-anchor="end" font-weight="500">51</text>
  <line x1="60" y1="211.9" x2="800" y2="211.9" stroke="rgba(26,25,21,0.05)"/>
  <text x="52" y="214.9" font-size="9" fill="rgba(26,25,21,0.3)" text-anchor="end" font-weight="500">68</text>
  <line x1="60" y1="172.3" x2="800" y2="172.3" stroke="rgba(26,25,21,0.05)"/>
  <text x="52" y="175.3" font-size="9" fill="rgba(26,25,21,0.3)" text-anchor="end" font-weight="500">85</text>
  <line x1="60" y1="170.0" x2="800" y2="170.0" stroke="rgba(26,25,21,0.05)"/>
  <text x="52" y="173.0" font-size="9" fill="rgba(26,25,21,0.3)" text-anchor="end" font-weight="500">86</text>
  <text x="60.0" y="388" font-size="9" fill="rgba(26,25,21,0.3)" font-weight="500" letter-spacing="0.03em">Jul 25</text>
  <text x="124.0" y="388" font-size="9" fill="rgba(26,25,21,0.3)" font-weight="500" letter-spacing="0.03em">Aug 25</text>
  <text x="178.4" y="388" font-size="9" fill="rgba(26,25,21,0.3)" font-weight="500" letter-spacing="0.03em">Sep 25</text>
  <text x="533.0" y="388" font-size="9" fill="rgba(26,25,21,0.3)" font-weight="500" letter-spacing="0.03em">Jan 26</text>
  <text x="722.6" y="388" font-size="9" fill="rgba(26,25,21,0.3)" font-weight="500" letter-spacing="0.03em">Mar 26</text>
  <text x="724.8" y="388" font-size="9" fill="rgba(26,25,21,0.3)" font-weight="500" letter-spacing="0.03em">Apr 26</text>

  <line x1="60" y1="170" x2="60" y2="370" stroke="rgba(26,25,21,0.12)"/>
  <line x1="60" y1="370" x2="800" y2="370" stroke="rgba(26,25,21,0.12)"/>

  <path d="M 60.0,370 L 60.0,367.7 L 62.3,365.3 L 124.0,363.0 L 137.0,360.7 L 178.4,358.4 L 533.0,356.0 L 722.6,353.7 L 723.3,351.4 L 723.3,349.1 L 723.4,346.7 L 723.5,344.4 L 723.8,342.1 L 723.9,339.8 L 724.0,337.4 L 724.8,335.1 L 725.6,332.8 L 727.7,330.5 L 728.8,328.1 L 730.0,325.8 L 731.1,323.5 L 733.0,321.2 L 735.4,318.8 L 737.3,316.5 L 737.8,314.2 L 739.1,311.9 L 740.9,309.5 L 743.4,307.2 L 743.4,304.9 L 743.5,302.6 L 743.6,300.2 L 743.6,297.9 L 744.3,295.6 L 745.2,293.3 L 746.5,290.9 L 746.9,288.6 L 748.2,286.3 L 749.2,284.0 L 749.7,281.6 L 750.5,279.3 L 751.5,277.0 L 752.0,274.7 L 752.1,272.3 L 752.4,270.0 L 753.8,267.7 L 756.7,265.3 L 757.1,263.0 L 757.7,260.7 L 759.0,258.4 L 759.4,256.0 L 759.6,253.7 L 760.6,251.4 L 761.5,249.1 L 761.7,246.7 L 762.0,244.4 L 762.6,242.1 L 763.5,239.8 L 763.9,237.4 L 764.7,235.1 L 765.3,232.8 L 765.8,230.5 L 766.8,228.1 L 769.3,225.8 L 774.6,223.5 L 776.6,221.2 L 776.6,218.8 L 779.6,216.5 L 780.4,214.2 L 780.6,211.9 L 780.6,209.5 L 780.6,207.2 L 782.7,204.9 L 784.4,202.6 L 784.6,200.2 L 785.9,197.9 L 789.8,195.6 L 790.3,193.3 L 791.1,190.9 L 791.1,188.6 L 795.3,186.3 L 795.4,184.0 L 798.4,181.6 L 798.4,179.3 L 799.1,177.0 L 799.7,174.7 L 799.8,172.3 L 800.0,170.0 L 800.0,370 Z" fill="url(#h)"/>
  <polyline points="60.0,367.7 62.3,365.3 124.0,363.0 137.0,360.7 178.4,358.4 533.0,356.0 722.6,353.7 723.3,351.4 723.3,349.1 723.4,346.7 723.5,344.4 723.8,342.1 723.9,339.8 724.0,337.4 724.8,335.1 725.6,332.8 727.7,330.5 728.8,328.1 730.0,325.8 731.1,323.5 733.0,321.2 735.4,318.8 737.3,316.5 737.8,314.2 739.1,311.9 740.9,309.5 743.4,307.2 743.4,304.9 743.5,302.6 743.6,300.2 743.6,297.9 744.3,295.6 745.2,293.3 746.5,290.9 746.9,288.6 748.2,286.3 749.2,284.0 749.7,281.6 750.5,279.3 751.5,277.0 752.0,274.7 752.1,272.3 752.4,270.0 753.8,267.7 756.7,265.3 757.1,263.0 757.7,260.7 759.0,258.4 759.4,256.0 759.6,253.7 760.6,251.4 761.5,249.1 761.7,246.7 762.0,244.4 762.6,242.1 763.5,239.8 763.9,237.4 764.7,235.1 765.3,232.8 765.8,230.5 766.8,228.1 769.3,225.8 774.6,223.5 776.6,221.2 776.6,218.8 779.6,216.5 780.4,214.2 780.6,211.9 780.6,209.5 780.6,207.2 782.7,204.9 784.4,202.6 784.6,200.2 785.9,197.9 789.8,195.6 790.3,193.3 791.1,190.9 791.1,188.6 795.3,186.3 795.4,184.0 798.4,181.6 798.4,179.3 799.1,177.0 799.7,174.7 799.8,172.3 800.0,170.0" fill="none" stroke="url(#lg)" stroke-width="2" stroke-linejoin="round" stroke-linecap="round"/>

  <circle cx="800.0" cy="170.0" r="4.5" fill="#8b2500"/>
  <circle cx="800.0" cy="170.0" r="2" fill="#f5f0e8"/>
  <circle cx="723.4" cy="346.7" r="2.5" fill="#c9a227" opacity="0.8"/>
  <text x="729.4" y="349.7" font-size="8" fill="#c9a227" font-weight="600">10</text>
  <circle cx="739.1" cy="311.9" r="2.5" fill="#c9a227" opacity="0.8"/>
  <text x="745.1" y="314.9" font-size="8" fill="#c9a227" font-weight="600">25</text>
  <circle cx="759.6" cy="253.7" r="2.5" fill="#c9a227" opacity="0.8"/>
  <text x="765.6" y="256.7" font-size="8" fill="#c9a227" font-weight="600">50</text>

  <line x1="60" y1="402" x2="800" y2="402" stroke="rgba(26,25,21,0.06)"/>
  <text x="60" y="414" font-size="8" fill="rgba(26,25,21,0.25)" font-style="italic">2.1 etoiles/sem · maj 30 Apr 2026 08:21 UTC</text>
  <text x="800" y="414" font-size="7" fill="rgba(26,25,21,0.18)" text-anchor="end" letter-spacing="0.1em">OBSERVATOIRE MMXXVI</text>

</svg>