<svg xmlns="http://www.w3.org/2000/svg" viewBox="0 0 840 420" width="840" height="420">
  <style>
    text { font-family: system-ui, -apple-system, 'Segoe UI', sans-serif; }
  </style>
  <defs>
    <pattern id="h" patternUnits="userSpaceOnUse" width="6" height="6" patternTransform="rotate(45)">
      <line x1="0" y1="0" x2="0" y2="6" stroke="rgba(26,25,21,0.07)" stroke-width="1"/>
    </pattern>
    <linearGradient id="lg" x1="0%" y1="0%" x2="100%" y2="0%">
      <stop offset="0%" stop-color="#1a1915" stop-opacity="0.4"/>
      <stop offset="30%" stop-color="#1a1915"/>
      <stop offset="100%" stop-color="#8b2500"/>
    </linearGradient>
  </defs>

  <rect width="840" height="420" rx="4" fill="#f5f0e8"/>
  <rect x=".5" y=".5" width="839" height="419" rx="4" fill="none" stroke="rgba(26,25,21,0.12)"/>

  <!-- Header -->
  <text x="60" y="32" font-size="11" font-weight="600" letter-spacing="0.14em" fill="#1a1915">OBSERVATOIRE</text>
  <text x="165" y="32" font-size="11" fill="#c9a227" letter-spacing="0.08em">·</text>
  <text x="178" y="32" font-size="11" font-weight="500" letter-spacing="0.06em" fill="rgba(26,25,21,0.45)">scub-france/Docling-Studio</text>

  <!-- Count -->
  <text x="800" y="30" font-size="34" font-weight="800" fill="#1a1915" text-anchor="end" letter-spacing="-0.02em">96</text>
  <text x="800" y="46" font-size="10" fill="rgba(26,25,21,0.35)" text-anchor="end" font-style="italic">etoiles observees</text>

  <!-- Weekly badge -->
  <rect x="704" y="54" width="96" height="20" rx="2" fill="none" stroke="rgba(201,162,39,0.35)"/>
  <text x="752" y="67" font-size="9" font-weight="600" fill="#c9a227" text-anchor="middle" letter-spacing="0.04em">↗ +18 THIS WEEK</text>

  <line x1="60" y1="90" x2="800" y2="90" stroke="rgba(26,25,21,0.1)"/>

  <!-- Stats row -->
  <text x="152.5" y="128" font-size="26" font-weight="600" fill="#1a1915" text-anchor="middle" letter-spacing="-0.02em">96</text>
  <text x="152.5" y="146" font-size="11" fill="rgba(26,25,21,0.4)" text-anchor="middle" font-style="italic">sur la periode</text>
  <line x1="245.0" y1="98" x2="245.0" y2="152" stroke="rgba(26,25,21,0.1)"/>
  <text x="337.5" y="128" font-size="26" font-weight="600" fill="#1a1915" text-anchor="middle" letter-spacing="-0.02em">+18</text>
  <text x="337.5" y="146" font-size="11" fill="rgba(26,25,21,0.4)" text-anchor="middle" font-style="italic">cette semaine</text>
  <line x1="430.0" y1="98" x2="430.0" y2="152" stroke="rgba(26,25,21,0.1)"/>
  <text x="522.5" y="128" font-size="26" font-weight="600" fill="#1a1915" text-anchor="middle" letter-spacing="-0.02em">2.3</text>
  <text x="522.5" y="146" font-size="11" fill="rgba(26,25,21,0.4)" text-anchor="middle" font-style="italic">moy. / semaine</text>
  <line x1="615.0" y1="98" x2="615.0" y2="152" stroke="rgba(26,25,21,0.1)"/>
  <text x="707.5" y="128" font-size="26" font-weight="600" fill="#1a1915" text-anchor="middle" letter-spacing="-0.02em">8</text>
  <text x="707.5" y="146" font-size="11" fill="rgba(26,25,21,0.4)" text-anchor="middle" font-style="italic">pic journalier</text>

  <line x1="60" y1="160" x2="800" y2="160" stroke="rgba(26,25,21,0.1)"/>

  <line x1="60" y1="370.0" x2="800" y2="370.0" stroke="rgba(26,25,21,0.05)"/>
  <text x="52" y="373.0" font-size="9" fill="rgba(26,25,21,0.3)" text-anchor="end" font-weight="500">0</text>
  <line x1="60" y1="330.4" x2="800" y2="330.4" stroke="rgba(26,25,21,0.05)"/>
  <text x="52" y="333.4" font-size="9" fill="rgba(26,25,21,0.3)" text-anchor="end" font-weight="500">19</text>
  <line x1="60" y1="290.8" x2="800" y2="290.8" stroke="rgba(26,25,21,0.05)"/>
  <text x="52" y="293.8" font-size="9" fill="rgba(26,25,21,0.3)" text-anchor="end" font-weight="500">38</text>
  <line x1="60" y1="251.2" x2="800" y2="251.2" stroke="rgba(26,25,21,0.05)"/>
  <text x="52" y="254.2" font-size="9" fill="rgba(26,25,21,0.3)" text-anchor="end" font-weight="500">57</text>
  <line x1="60" y1="211.7" x2="800" y2="211.7" stroke="rgba(26,25,21,0.05)"/>
  <text x="52" y="214.7" font-size="9" fill="rgba(26,25,21,0.3)" text-anchor="end" font-weight="500">76</text>
  <line x1="60" y1="172.1" x2="800" y2="172.1" stroke="rgba(26,25,21,0.05)"/>
  <text x="52" y="175.1" font-size="9" fill="rgba(26,25,21,0.3)" text-anchor="end" font-weight="500">95</text>
  <line x1="60" y1="170.0" x2="800" y2="170.0" stroke="rgba(26,25,21,0.05)"/>
  <text x="52" y="173.0" font-size="9" fill="rgba(26,25,21,0.3)" text-anchor="end" font-weight="500">96</text>
  <text x="60.0" y="388" font-size="9" fill="rgba(26,25,21,0.3)" font-weight="500" letter-spacing="0.03em">Jul 25</text>
  <text x="123.2" y="388" font-size="9" fill="rgba(26,25,21,0.3)" font-weight="500" letter-spacing="0.03em">Aug 25</text>
  <text x="177.0" y="388" font-size="9" fill="rgba(26,25,21,0.3)" font-weight="500" letter-spacing="0.03em">Sep 25</text>
  <text x="527.4" y="388" font-size="9" fill="rgba(26,25,21,0.3)" font-weight="500" letter-spacing="0.03em">Jan 26</text>
  <text x="714.9" y="388" font-size="9" fill="rgba(26,25,21,0.3)" font-weight="500" letter-spacing="0.03em">Mar 26</text>
  <text x="717.0" y="388" font-size="9" fill="rgba(26,25,21,0.3)" font-weight="500" letter-spacing="0.03em">Apr 26</text>
  <text x="793.5" y="388" font-size="9" fill="rgba(26,25,21,0.3)" font-weight="500" letter-spacing="0.03em">May 26</text>

  <line x1="60" y1="170" x2="60" y2="370" stroke="rgba(26,25,21,0.12)"/>
  <line x1="60" y1="370" x2="800" y2="370" stroke="rgba(26,25,21,0.12)"/>

  <path d="M 60.0,370 L 60.0,367.9 L 62.2,365.8 L 123.2,363.8 L 136.1,361.7 L 177.0,359.6 L 527.4,357.5 L 714.9,355.4 L 715.5,353.3 L 715.6,351.2 L 715.6,349.2 L 715.7,347.1 L 716.0,345.0 L 716.1,342.9 L 716.2,340.8 L 717.0,338.8 L 717.8,336.7 L 719.9,334.6 L 721.0,332.5 L 722.2,330.4 L 723.2,328.3 L 725.1,326.2 L 727.5,324.2 L 729.3,322.1 L 729.8,320.0 L 731.1,317.9 L 733.0,315.8 L 735.4,313.8 L 735.4,311.7 L 735.5,309.6 L 735.5,307.5 L 735.6,305.4 L 736.3,303.3 L 737.2,301.2 L 738.5,299.2 L 738.9,297.1 L 740.1,295.0 L 741.1,292.9 L 741.6,290.8 L 742.5,288.8 L 743.4,286.7 L 743.9,284.6 L 743.9,282.5 L 744.3,280.4 L 745.7,278.3 L 748.6,276.2 L 749.0,274.2 L 749.5,272.1 L 750.8,270.0 L 751.2,267.9 L 751.4,265.8 L 752.4,263.8 L 753.3,261.7 L 753.4,259.6 L 753.8,257.5 L 754.3,255.4 L 755.3,253.3 L 755.7,251.2 L 756.4,249.2 L 757.1,247.1 L 757.6,245.0 L 758.6,242.9 L 761.0,240.8 L 766.2,238.8 L 768.2,236.7 L 768.2,234.6 L 771.2,232.5 L 772.0,230.4 L 772.1,228.3 L 772.1,226.2 L 772.2,224.2 L 774.2,222.1 L 776.0,220.0 L 776.1,217.9 L 777.3,215.8 L 781.3,213.8 L 781.8,211.7 L 782.6,209.6 L 782.6,207.5 L 786.7,205.4 L 786.8,203.3 L 789.7,201.2 L 789.7,199.2 L 790.4,197.1 L 791.0,195.0 L 791.2,192.9 L 791.3,190.8 L 791.9,188.8 L 792.3,186.7 L 792.5,184.6 L 793.5,182.5 L 794.3,180.4 L 794.9,178.3 L 795.7,176.2 L 796.7,174.2 L 799.7,172.1 L 800.0,170.0 L 800.0,370 Z" fill="url(#h)"/>
  <polyline points="60.0,367.9 62.2,365.8 123.2,363.8 136.1,361.7 177.0,359.6 527.4,357.5 714.9,355.4 715.5,353.3 715.6,351.2 715.6,349.2 715.7,347.1 716.0,345.0 716.1,342.9 716.2,340.8 717.0,338.8 717.8,336.7 719.9,334.6 721.0,332.5 722.2,330.4 723.2,328.3 725.1,326.2 727.5,324.2 729.3,322.1 729.8,320.0 731.1,317.9 733.0,315.8 735.4,313.8 735.4,311.7 735.5,309.6 735.5,307.5 735.6,305.4 736.3,303.3 737.2,301.2 738.5,299.2 738.9,297.1 740.1,295.0 741.1,292.9 741.6,290.8 742.5,288.8 743.4,286.7 743.9,284.6 743.9,282.5 744.3,280.4 745.7,278.3 748.6,276.2 749.0,274.2 749.5,272.1 750.8,270.0 751.2,267.9 751.4,265.8 752.4,263.8 753.3,261.7 753.4,259.6 753.8,257.5 754.3,255.4 755.3,253.3 755.7,251.2 756.4,249.2 757.1,247.1 757.6,245.0 758.6,242.9 761.0,240.8 766.2,238.8 768.2,236.7 768.2,234.6 771.2,232.5 772.0,230.4 772.1,228.3 772.1,226.2 772.2,224.2 774.2,222.1 776.0,220.0 776.1,217.9 777.3,215.8 781.3,213.8 781.8,211.7 782.6,209.6 782.6,207.5 786.7,205.4 786.8,203.3 789.7,201.2 789.7,199.2 790.4,197.1 791.0,195.0 791.2,192.9 791.3,190.8 791.9,188.8 792.3,186.7 792.5,184.6 793.5,182.5 794.3,180.4 794.9,178.3 795.7,176.2 796.7,174.2 799.7,172.1 800.0,170.0" fill="none" stroke="url(#lg)" stroke-width="2" stroke-linejoin="round" stroke-linecap="round"/>

  <circle cx="800.0" cy="170.0" r="4.5" fill="#8b2500"/>
  <circle cx="800.0" cy="170.0" r="2" fill="#f5f0e8"/>
  <circle cx="715.6" cy="349.2" r="2.5" fill="#c9a227" opacity="0.8"/>
  <text x="721.6" y="352.2" font-size="8" fill="#c9a227" font-weight="600">10</text>
  <circle cx="731.1" cy="317.9" r="2.5" fill="#c9a227" opacity="0.8"/>
  <text x="737.1" y="320.9" font-size="8" fill="#c9a227" font-weight="600">25</text>
  <circle cx="751.4" cy="265.8" r="2.5" fill="#c9a227" opacity="0.8"/>
  <text x="757.4" y="268.8" font-size="8" fill="#c9a227" font-weight="600">50</text>

  <line x1="60" y1="402" x2="800" y2="402" stroke="rgba(26,25,21,0.06)"/>
  <text x="60" y="414" font-size="8" fill="rgba(26,25,21,0.25)" font-style="italic">2.3 etoiles/sem · maj 03 May 2026 18:59 UTC</text>
  <text x="800" y="414" font-size="7" fill="rgba(26,25,21,0.18)" text-anchor="end" letter-spacing="0.1em">OBSERVATOIRE MMXXVI</text>

</svg>