<svg xmlns="http://www.w3.org/2000/svg" viewBox="0 0 840 420" width="840" height="420">
  <style>
    text { font-family: system-ui, -apple-system, 'Segoe UI', sans-serif; }
  </style>
  <defs>
    <pattern id="h" patternUnits="userSpaceOnUse" width="6" height="6" patternTransform="rotate(45)">
      <line x1="0" y1="0" x2="0" y2="6" stroke="rgba(26,25,21,0.07)" stroke-width="1"/>
    </pattern>
    <linearGradient id="lg" x1="0%" y1="0%" x2="100%" y2="0%">
      <stop offset="0%" stop-color="#1a1915" stop-opacity="0.4"/>
      <stop offset="30%" stop-color="#1a1915"/>
      <stop offset="100%" stop-color="#8b2500"/>
    </linearGradient>
  </defs>

  <rect width="840" height="420" rx="4" fill="#f5f0e8"/>
  <rect x=".5" y=".5" width="839" height="419" rx="4" fill="none" stroke="rgba(26,25,21,0.12)"/>

  <!-- Header -->
  <text x="60" y="32" font-size="11" font-weight="600" letter-spacing="0.14em" fill="#1a1915">OBSERVATOIRE</text>
  <text x="165" y="32" font-size="11" fill="#c9a227" letter-spacing="0.08em">·</text>
  <text x="178" y="32" font-size="11" font-weight="500" letter-spacing="0.06em" fill="rgba(26,25,21,0.45)">scub-france/Docling-Studio</text>

  <!-- Count -->
  <text x="800" y="30" font-size="34" font-weight="800" fill="#1a1915" text-anchor="end" letter-spacing="-0.02em">71</text>
  <text x="800" y="46" font-size="10" fill="rgba(26,25,21,0.35)" text-anchor="end" font-style="italic">etoiles observees</text>

  <!-- Weekly badge -->
  <rect x="704" y="54" width="96" height="20" rx="2" fill="none" stroke="rgba(201,162,39,0.35)"/>
  <text x="752" y="67" font-size="9" font-weight="600" fill="#c9a227" text-anchor="middle" letter-spacing="0.04em">↗ +11 THIS WEEK</text>

  <line x1="60" y1="90" x2="800" y2="90" stroke="rgba(26,25,21,0.1)"/>

  <!-- Stats row -->
  <text x="152.5" y="128" font-size="26" font-weight="600" fill="#1a1915" text-anchor="middle" letter-spacing="-0.02em">71</text>
  <text x="152.5" y="146" font-size="11" fill="rgba(26,25,21,0.4)" text-anchor="middle" font-style="italic">sur la periode</text>
  <line x1="245.0" y1="98" x2="245.0" y2="152" stroke="rgba(26,25,21,0.1)"/>
  <text x="337.5" y="128" font-size="26" font-weight="600" fill="#1a1915" text-anchor="middle" letter-spacing="-0.02em">+11</text>
  <text x="337.5" y="146" font-size="11" fill="rgba(26,25,21,0.4)" text-anchor="middle" font-style="italic">cette semaine</text>
  <line x1="430.0" y1="98" x2="430.0" y2="152" stroke="rgba(26,25,21,0.1)"/>
  <text x="522.5" y="128" font-size="26" font-weight="600" fill="#1a1915" text-anchor="middle" letter-spacing="-0.02em">1.8</text>
  <text x="522.5" y="146" font-size="11" fill="rgba(26,25,21,0.4)" text-anchor="middle" font-style="italic">moy. / semaine</text>
  <line x1="615.0" y1="98" x2="615.0" y2="152" stroke="rgba(26,25,21,0.1)"/>
  <text x="707.5" y="128" font-size="26" font-weight="600" fill="#1a1915" text-anchor="middle" letter-spacing="-0.02em">8</text>
  <text x="707.5" y="146" font-size="11" fill="rgba(26,25,21,0.4)" text-anchor="middle" font-style="italic">pic journalier</text>

  <line x1="60" y1="160" x2="800" y2="160" stroke="rgba(26,25,21,0.1)"/>

  <line x1="60" y1="370.0" x2="800" y2="370.0" stroke="rgba(26,25,21,0.05)"/>
  <text x="52" y="373.0" font-size="9" fill="rgba(26,25,21,0.3)" text-anchor="end" font-weight="500">0</text>
  <line x1="60" y1="330.6" x2="800" y2="330.6" stroke="rgba(26,25,21,0.05)"/>
  <text x="52" y="333.6" font-size="9" fill="rgba(26,25,21,0.3)" text-anchor="end" font-weight="500">14</text>
  <line x1="60" y1="291.1" x2="800" y2="291.1" stroke="rgba(26,25,21,0.05)"/>
  <text x="52" y="294.1" font-size="9" fill="rgba(26,25,21,0.3)" text-anchor="end" font-weight="500">28</text>
  <line x1="60" y1="251.7" x2="800" y2="251.7" stroke="rgba(26,25,21,0.05)"/>
  <text x="52" y="254.7" font-size="9" fill="rgba(26,25,21,0.3)" text-anchor="end" font-weight="500">42</text>
  <line x1="60" y1="212.3" x2="800" y2="212.3" stroke="rgba(26,25,21,0.05)"/>
  <text x="52" y="215.3" font-size="9" fill="rgba(26,25,21,0.3)" text-anchor="end" font-weight="500">56</text>
  <line x1="60" y1="172.8" x2="800" y2="172.8" stroke="rgba(26,25,21,0.05)"/>
  <text x="52" y="175.8" font-size="9" fill="rgba(26,25,21,0.3)" text-anchor="end" font-weight="500">70</text>
  <line x1="60" y1="170.0" x2="800" y2="170.0" stroke="rgba(26,25,21,0.05)"/>
  <text x="52" y="173.0" font-size="9" fill="rgba(26,25,21,0.3)" text-anchor="end" font-weight="500">71</text>
  <text x="60.0" y="388" font-size="9" fill="rgba(26,25,21,0.3)" font-weight="500" letter-spacing="0.03em">Jul 25</text>
  <text x="125.5" y="388" font-size="9" fill="rgba(26,25,21,0.3)" font-weight="500" letter-spacing="0.03em">Aug 25</text>
  <text x="181.2" y="388" font-size="9" fill="rgba(26,25,21,0.3)" font-weight="500" letter-spacing="0.03em">Sep 25</text>
  <text x="544.3" y="388" font-size="9" fill="rgba(26,25,21,0.3)" font-weight="500" letter-spacing="0.03em">Jan 26</text>
  <text x="738.5" y="388" font-size="9" fill="rgba(26,25,21,0.3)" font-weight="500" letter-spacing="0.03em">Mar 26</text>
  <text x="740.7" y="388" font-size="9" fill="rgba(26,25,21,0.3)" font-weight="500" letter-spacing="0.03em">Apr 26</text>

  <line x1="60" y1="170" x2="60" y2="370" stroke="rgba(26,25,21,0.12)"/>
  <line x1="60" y1="370" x2="800" y2="370" stroke="rgba(26,25,21,0.12)"/>

  <path d="M 60.0,370 L 60.0,367.2 L 62.3,364.4 L 125.5,361.5 L 138.8,358.7 L 181.2,355.9 L 544.3,353.1 L 738.5,350.3 L 739.2,347.5 L 739.2,344.6 L 739.3,341.8 L 739.4,339.0 L 739.7,336.2 L 739.8,333.4 L 739.9,330.6 L 740.7,327.7 L 741.6,324.9 L 743.7,322.1 L 744.9,319.3 L 746.1,316.5 L 747.2,313.7 L 749.2,310.8 L 751.6,308.0 L 753.5,305.2 L 754.0,302.4 L 755.4,299.6 L 757.3,296.8 L 759.8,293.9 L 759.8,291.1 L 759.9,288.3 L 760.0,285.5 L 760.0,282.7 L 760.7,279.9 L 761.7,277.0 L 763.0,274.2 L 763.4,271.4 L 764.7,268.6 L 765.7,265.8 L 766.3,263.0 L 767.1,260.1 L 768.1,257.3 L 768.6,254.5 L 768.7,251.7 L 769.0,248.9 L 770.4,246.1 L 773.5,243.2 L 773.9,240.4 L 774.4,237.6 L 775.8,234.8 L 776.2,232.0 L 776.4,229.2 L 777.4,226.3 L 778.3,223.5 L 778.5,220.7 L 778.9,217.9 L 779.4,215.1 L 780.4,212.3 L 780.8,209.4 L 781.6,206.6 L 782.3,203.8 L 782.8,201.0 L 783.8,198.2 L 786.3,195.4 L 791.7,192.5 L 793.7,189.7 L 793.7,186.9 L 796.8,184.1 L 797.7,181.3 L 797.9,178.5 L 797.9,175.6 L 797.9,172.8 L 800.0,170.0 L 800.0,370 Z" fill="url(#h)"/>
  <polyline points="60.0,367.2 62.3,364.4 125.5,361.5 138.8,358.7 181.2,355.9 544.3,353.1 738.5,350.3 739.2,347.5 739.2,344.6 739.3,341.8 739.4,339.0 739.7,336.2 739.8,333.4 739.9,330.6 740.7,327.7 741.6,324.9 743.7,322.1 744.9,319.3 746.1,316.5 747.2,313.7 749.2,310.8 751.6,308.0 753.5,305.2 754.0,302.4 755.4,299.6 757.3,296.8 759.8,293.9 759.8,291.1 759.9,288.3 760.0,285.5 760.0,282.7 760.7,279.9 761.7,277.0 763.0,274.2 763.4,271.4 764.7,268.6 765.7,265.8 766.3,263.0 767.1,260.1 768.1,257.3 768.6,254.5 768.7,251.7 769.0,248.9 770.4,246.1 773.5,243.2 773.9,240.4 774.4,237.6 775.8,234.8 776.2,232.0 776.4,229.2 777.4,226.3 778.3,223.5 778.5,220.7 778.9,217.9 779.4,215.1 780.4,212.3 780.8,209.4 781.6,206.6 782.3,203.8 782.8,201.0 783.8,198.2 786.3,195.4 791.7,192.5 793.7,189.7 793.7,186.9 796.8,184.1 797.7,181.3 797.9,178.5 797.9,175.6 797.9,172.8 800.0,170.0" fill="none" stroke="url(#lg)" stroke-width="2" stroke-linejoin="round" stroke-linecap="round"/>

  <circle cx="800.0" cy="170.0" r="4.5" fill="#8b2500"/>
  <circle cx="800.0" cy="170.0" r="2" fill="#f5f0e8"/>
  <circle cx="739.3" cy="341.8" r="2.5" fill="#c9a227" opacity="0.8"/>
  <text x="745.3" y="344.8" font-size="8" fill="#c9a227" font-weight="600">10</text>
  <circle cx="755.4" cy="299.6" r="2.5" fill="#c9a227" opacity="0.8"/>
  <text x="761.4" y="302.6" font-size="8" fill="#c9a227" font-weight="600">25</text>
  <circle cx="776.4" cy="229.2" r="2.5" fill="#c9a227" opacity="0.8"/>
  <text x="782.4" y="232.2" font-size="8" fill="#c9a227" font-weight="600">50</text>

  <line x1="60" y1="402" x2="800" y2="402" stroke="rgba(26,25,21,0.06)"/>
  <text x="60" y="414" font-size="8" fill="rgba(26,25,21,0.25)" font-style="italic">1.8 etoiles/sem · maj 24 Apr 2026 02:37 UTC</text>
  <text x="800" y="414" font-size="7" fill="rgba(26,25,21,0.18)" text-anchor="end" letter-spacing="0.1em">OBSERVATOIRE MMXXVI</text>

</svg>