<svg xmlns="http://www.w3.org/2000/svg" viewBox="0 0 840 320" width="840" height="320">
  <style>
    text { font-family: system-ui, -apple-system, 'Segoe UI', sans-serif; }
  </style>
  <defs>
    <pattern id="h" patternUnits="userSpaceOnUse" width="6" height="6" patternTransform="rotate(45)">
      <line x1="0" y1="0" x2="0" y2="6" stroke="rgba(26,25,21,0.07)" stroke-width="1"/>
    </pattern>
    <linearGradient id="lg" x1="0%" y1="0%" x2="100%" y2="0%">
      <stop offset="0%" stop-color="#1a1915" stop-opacity="0.4"/>
      <stop offset="30%" stop-color="#1a1915"/>
      <stop offset="100%" stop-color="#8b2500"/>
    </linearGradient>
  </defs>

  <rect width="840" height="320" rx="4" fill="#f5f0e8"/>
  <rect x=".5" y=".5" width="839" height="319" rx="4" fill="none" stroke="rgba(26,25,21,0.12)"/>

  <!-- Header -->
  <text x="60" y="32" font-size="11" font-weight="600" letter-spacing="0.14em" fill="#1a1915">OBSERVATOIRE</text>
  <text x="165" y="32" font-size="11" fill="#c9a227" letter-spacing="0.08em">·</text>
  <text x="178" y="32" font-size="11" font-weight="500" letter-spacing="0.06em" fill="rgba(26,25,21,0.45)">scub-france/Docling-Studio</text>

  <!-- Count -->
  <text x="800" y="30" font-size="34" font-weight="800" fill="#1a1915" text-anchor="end" letter-spacing="-0.02em">61</text>
  <text x="800" y="46" font-size="10" fill="rgba(26,25,21,0.35)" text-anchor="end" font-style="italic">etoiles observees</text>

  <!-- Weekly badge -->
  <rect x="704" y="54" width="96" height="20" rx="2" fill="none" stroke="rgba(201,162,39,0.35)"/>
  <text x="752" y="67" font-size="9" font-weight="600" fill="#c9a227" text-anchor="middle" letter-spacing="0.04em">↗ +24 THIS WEEK</text>

  <line x1="60" y1="74" x2="800" y2="74" stroke="rgba(26,25,21,0.1)"/>

  <line x1="60" y1="270.0" x2="800" y2="270.0" stroke="rgba(26,25,21,0.05)"/>
  <text x="52" y="273.0" font-size="9" fill="rgba(26,25,21,0.3)" text-anchor="end" font-weight="500">0</text>
  <line x1="60" y1="232.6" x2="800" y2="232.6" stroke="rgba(26,25,21,0.05)"/>
  <text x="52" y="235.6" font-size="9" fill="rgba(26,25,21,0.3)" text-anchor="end" font-weight="500">12</text>
  <line x1="60" y1="195.2" x2="800" y2="195.2" stroke="rgba(26,25,21,0.05)"/>
  <text x="52" y="198.2" font-size="9" fill="rgba(26,25,21,0.3)" text-anchor="end" font-weight="500">24</text>
  <line x1="60" y1="157.9" x2="800" y2="157.9" stroke="rgba(26,25,21,0.05)"/>
  <text x="52" y="160.9" font-size="9" fill="rgba(26,25,21,0.3)" text-anchor="end" font-weight="500">36</text>
  <line x1="60" y1="120.5" x2="800" y2="120.5" stroke="rgba(26,25,21,0.05)"/>
  <text x="52" y="123.5" font-size="9" fill="rgba(26,25,21,0.3)" text-anchor="end" font-weight="500">48</text>
  <line x1="60" y1="83.1" x2="800" y2="83.1" stroke="rgba(26,25,21,0.05)"/>
  <text x="52" y="86.1" font-size="9" fill="rgba(26,25,21,0.3)" text-anchor="end" font-weight="500">60</text>
  <line x1="60" y1="80.0" x2="800" y2="80.0" stroke="rgba(26,25,21,0.05)"/>
  <text x="52" y="83.0" font-size="9" fill="rgba(26,25,21,0.3)" text-anchor="end" font-weight="500">61</text>
  <text x="60.0" y="288" font-size="9" fill="rgba(26,25,21,0.3)" font-weight="500" letter-spacing="0.03em">Jul 25</text>
  <text x="127.1" y="288" font-size="9" fill="rgba(26,25,21,0.3)" font-weight="500" letter-spacing="0.03em">Aug 25</text>
  <text x="184.1" y="288" font-size="9" fill="rgba(26,25,21,0.3)" font-weight="500" letter-spacing="0.03em">Sep 25</text>
  <text x="555.9" y="288" font-size="9" fill="rgba(26,25,21,0.3)" font-weight="500" letter-spacing="0.03em">Jan 26</text>
  <text x="754.7" y="288" font-size="9" fill="rgba(26,25,21,0.3)" font-weight="500" letter-spacing="0.03em">Mar 26</text>
  <text x="757.0" y="288" font-size="9" fill="rgba(26,25,21,0.3)" font-weight="500" letter-spacing="0.03em">Apr 26</text>

  <line x1="60" y1="80" x2="60" y2="270" stroke="rgba(26,25,21,0.12)"/>
  <line x1="60" y1="270" x2="800" y2="270" stroke="rgba(26,25,21,0.12)"/>

  <path d="M 60.0,270 L 60.0,266.9 L 62.4,263.8 L 127.1,260.7 L 140.7,257.5 L 184.1,254.4 L 555.9,251.3 L 754.7,248.2 L 755.4,245.1 L 755.4,242.0 L 755.5,238.9 L 755.6,235.7 L 755.9,232.6 L 756.0,229.5 L 756.1,226.4 L 757.0,223.3 L 757.8,220.2 L 760.0,217.0 L 761.2,213.9 L 762.5,210.8 L 763.6,207.7 L 765.6,204.6 L 768.1,201.5 L 770.0,198.4 L 770.6,195.2 L 771.0,192.1 L 772.0,189.0 L 773.9,185.9 L 776.5,182.8 L 776.5,179.7 L 776.6,176.6 L 776.6,173.4 L 776.7,170.3 L 777.4,167.2 L 778.4,164.1 L 779.8,161.0 L 780.2,157.9 L 781.5,154.8 L 782.6,151.6 L 783.1,148.5 L 784.0,145.4 L 785.0,142.3 L 785.5,139.2 L 785.6,136.1 L 785.9,133.0 L 787.4,129.8 L 790.5,126.7 L 790.9,123.6 L 791.5,120.5 L 792.8,117.4 L 793.3,114.3 L 793.5,111.1 L 794.5,108.0 L 795.5,104.9 L 795.6,101.8 L 796.0,98.7 L 796.6,95.6 L 797.6,92.5 L 798.0,89.3 L 798.8,86.2 L 799.5,83.1 L 800.0,80.0 L 800.0,270 Z" fill="url(#h)"/>
  <polyline points="60.0,266.9 62.4,263.8 127.1,260.7 140.7,257.5 184.1,254.4 555.9,251.3 754.7,248.2 755.4,245.1 755.4,242.0 755.5,238.9 755.6,235.7 755.9,232.6 756.0,229.5 756.1,226.4 757.0,223.3 757.8,220.2 760.0,217.0 761.2,213.9 762.5,210.8 763.6,207.7 765.6,204.6 768.1,201.5 770.0,198.4 770.6,195.2 771.0,192.1 772.0,189.0 773.9,185.9 776.5,182.8 776.5,179.7 776.6,176.6 776.6,173.4 776.7,170.3 777.4,167.2 778.4,164.1 779.8,161.0 780.2,157.9 781.5,154.8 782.6,151.6 783.1,148.5 784.0,145.4 785.0,142.3 785.5,139.2 785.6,136.1 785.9,133.0 787.4,129.8 790.5,126.7 790.9,123.6 791.5,120.5 792.8,117.4 793.3,114.3 793.5,111.1 794.5,108.0 795.5,104.9 795.6,101.8 796.0,98.7 796.6,95.6 797.6,92.5 798.0,89.3 798.8,86.2 799.5,83.1 800.0,80.0" fill="none" stroke="url(#lg)" stroke-width="2" stroke-linejoin="round" stroke-linecap="round"/>

  <circle cx="800.0" cy="80.0" r="4.5" fill="#8b2500"/>
  <circle cx="800.0" cy="80.0" r="2" fill="#f5f0e8"/>
  <circle cx="755.5" cy="238.9" r="2.5" fill="#c9a227" opacity="0.8"/>
  <text x="761.5" y="241.9" font-size="8" fill="#c9a227" font-weight="600">10</text>
  <circle cx="771.0" cy="192.1" r="2.5" fill="#c9a227" opacity="0.8"/>
  <text x="777.0" y="195.1" font-size="8" fill="#c9a227" font-weight="600">25</text>
  <circle cx="793.3" cy="114.3" r="2.5" fill="#c9a227" opacity="0.8"/>
  <text x="799.3" y="117.3" font-size="8" fill="#c9a227" font-weight="600">50</text>

  <line x1="60" y1="302" x2="800" y2="302" stroke="rgba(26,25,21,0.06)"/>
  <text x="60" y="314" font-size="8" fill="rgba(26,25,21,0.25)" font-style="italic">1.6 etoiles/sem · maj 17 Apr 2026 07:46 UTC</text>
  <text x="800" y="314" font-size="7" fill="rgba(26,25,21,0.18)" text-anchor="end" letter-spacing="0.1em">OBSERVATOIRE MMXXVI</text>

</svg>