<svg xmlns="http://www.w3.org/2000/svg" viewBox="0 0 840 420" width="840" height="420">
  <style>
    text { font-family: system-ui, -apple-system, 'Segoe UI', sans-serif; }
  </style>
  <defs>
    <pattern id="h" patternUnits="userSpaceOnUse" width="6" height="6" patternTransform="rotate(45)">
      <line x1="0" y1="0" x2="0" y2="6" stroke="rgba(26,25,21,0.07)" stroke-width="1"/>
    </pattern>
    <linearGradient id="lg" x1="0%" y1="0%" x2="100%" y2="0%">
      <stop offset="0%" stop-color="#1a1915" stop-opacity="0.4"/>
      <stop offset="30%" stop-color="#1a1915"/>
      <stop offset="100%" stop-color="#8b2500"/>
    </linearGradient>
  </defs>

  <rect width="840" height="420" rx="4" fill="#f5f0e8"/>
  <rect x=".5" y=".5" width="839" height="419" rx="4" fill="none" stroke="rgba(26,25,21,0.12)"/>

  <!-- Header -->
  <text x="60" y="32" font-size="11" font-weight="600" letter-spacing="0.14em" fill="#1a1915">OBSERVATOIRE</text>
  <text x="165" y="32" font-size="11" fill="#c9a227" letter-spacing="0.08em">·</text>
  <text x="178" y="32" font-size="11" font-weight="500" letter-spacing="0.06em" fill="rgba(26,25,21,0.45)">scub-france/Docling-Studio</text>

  <!-- Count -->
  <text x="800" y="30" font-size="34" font-weight="800" fill="#1a1915" text-anchor="end" letter-spacing="-0.02em">90</text>
  <text x="800" y="46" font-size="10" fill="rgba(26,25,21,0.35)" text-anchor="end" font-style="italic">etoiles observees</text>

  <!-- Weekly badge -->
  <rect x="704" y="54" width="96" height="20" rx="2" fill="none" stroke="rgba(201,162,39,0.35)"/>
  <text x="752" y="67" font-size="9" font-weight="600" fill="#c9a227" text-anchor="middle" letter-spacing="0.04em">↗ +19 THIS WEEK</text>

  <line x1="60" y1="90" x2="800" y2="90" stroke="rgba(26,25,21,0.1)"/>

  <!-- Stats row -->
  <text x="152.5" y="128" font-size="26" font-weight="600" fill="#1a1915" text-anchor="middle" letter-spacing="-0.02em">90</text>
  <text x="152.5" y="146" font-size="11" fill="rgba(26,25,21,0.4)" text-anchor="middle" font-style="italic">sur la periode</text>
  <line x1="245.0" y1="98" x2="245.0" y2="152" stroke="rgba(26,25,21,0.1)"/>
  <text x="337.5" y="128" font-size="26" font-weight="600" fill="#1a1915" text-anchor="middle" letter-spacing="-0.02em">+19</text>
  <text x="337.5" y="146" font-size="11" fill="rgba(26,25,21,0.4)" text-anchor="middle" font-style="italic">cette semaine</text>
  <line x1="430.0" y1="98" x2="430.0" y2="152" stroke="rgba(26,25,21,0.1)"/>
  <text x="522.5" y="128" font-size="26" font-weight="600" fill="#1a1915" text-anchor="middle" letter-spacing="-0.02em">2.2</text>
  <text x="522.5" y="146" font-size="11" fill="rgba(26,25,21,0.4)" text-anchor="middle" font-style="italic">moy. / semaine</text>
  <line x1="615.0" y1="98" x2="615.0" y2="152" stroke="rgba(26,25,21,0.1)"/>
  <text x="707.5" y="128" font-size="26" font-weight="600" fill="#1a1915" text-anchor="middle" letter-spacing="-0.02em">8</text>
  <text x="707.5" y="146" font-size="11" fill="rgba(26,25,21,0.4)" text-anchor="middle" font-style="italic">pic journalier</text>

  <line x1="60" y1="160" x2="800" y2="160" stroke="rgba(26,25,21,0.1)"/>

  <line x1="60" y1="370.0" x2="800" y2="370.0" stroke="rgba(26,25,21,0.05)"/>
  <text x="52" y="373.0" font-size="9" fill="rgba(26,25,21,0.3)" text-anchor="end" font-weight="500">0</text>
  <line x1="60" y1="330.0" x2="800" y2="330.0" stroke="rgba(26,25,21,0.05)"/>
  <text x="52" y="333.0" font-size="9" fill="rgba(26,25,21,0.3)" text-anchor="end" font-weight="500">18</text>
  <line x1="60" y1="290.0" x2="800" y2="290.0" stroke="rgba(26,25,21,0.05)"/>
  <text x="52" y="293.0" font-size="9" fill="rgba(26,25,21,0.3)" text-anchor="end" font-weight="500">36</text>
  <line x1="60" y1="250.0" x2="800" y2="250.0" stroke="rgba(26,25,21,0.05)"/>
  <text x="52" y="253.0" font-size="9" fill="rgba(26,25,21,0.3)" text-anchor="end" font-weight="500">54</text>
  <line x1="60" y1="210.0" x2="800" y2="210.0" stroke="rgba(26,25,21,0.05)"/>
  <text x="52" y="213.0" font-size="9" fill="rgba(26,25,21,0.3)" text-anchor="end" font-weight="500">72</text>
  <line x1="60" y1="170.0" x2="800" y2="170.0" stroke="rgba(26,25,21,0.05)"/>
  <text x="52" y="173.0" font-size="9" fill="rgba(26,25,21,0.3)" text-anchor="end" font-weight="500">90</text>
  <text x="60.0" y="388" font-size="9" fill="rgba(26,25,21,0.3)" font-weight="500" letter-spacing="0.03em">Jul 25</text>
  <text x="123.8" y="388" font-size="9" fill="rgba(26,25,21,0.3)" font-weight="500" letter-spacing="0.03em">Aug 25</text>
  <text x="178.1" y="388" font-size="9" fill="rgba(26,25,21,0.3)" font-weight="500" letter-spacing="0.03em">Sep 25</text>
  <text x="531.6" y="388" font-size="9" fill="rgba(26,25,21,0.3)" font-weight="500" letter-spacing="0.03em">Jan 26</text>
  <text x="720.7" y="388" font-size="9" fill="rgba(26,25,21,0.3)" font-weight="500" letter-spacing="0.03em">Mar 26</text>
  <text x="722.8" y="388" font-size="9" fill="rgba(26,25,21,0.3)" font-weight="500" letter-spacing="0.03em">Apr 26</text>
  <text x="800.0" y="388" font-size="9" fill="rgba(26,25,21,0.3)" font-weight="500" letter-spacing="0.03em">May 26</text>

  <line x1="60" y1="170" x2="60" y2="370" stroke="rgba(26,25,21,0.12)"/>
  <line x1="60" y1="370" x2="800" y2="370" stroke="rgba(26,25,21,0.12)"/>

  <path d="M 60.0,370 L 60.0,367.8 L 62.2,365.6 L 123.8,363.3 L 136.7,361.1 L 178.1,358.9 L 531.6,356.7 L 720.7,354.4 L 721.4,352.2 L 721.4,350.0 L 721.5,347.8 L 721.6,345.6 L 721.8,343.3 L 722.0,341.1 L 722.1,338.9 L 722.8,336.7 L 723.7,334.4 L 725.8,332.2 L 726.9,330.0 L 728.1,327.8 L 729.1,325.6 L 731.1,323.3 L 733.5,321.1 L 735.3,318.9 L 735.8,316.7 L 737.1,314.4 L 739.0,312.2 L 741.4,310.0 L 741.5,307.8 L 741.5,305.6 L 741.6,303.3 L 741.6,301.1 L 742.3,298.9 L 743.2,296.7 L 744.5,294.4 L 744.9,292.2 L 746.2,290.0 L 747.2,287.8 L 747.7,285.6 L 748.5,283.3 L 749.5,281.1 L 750.0,278.9 L 750.0,276.7 L 750.4,274.4 L 751.8,272.2 L 754.7,270.0 L 755.1,267.8 L 755.7,265.6 L 757.0,263.3 L 757.4,261.1 L 757.6,258.9 L 758.5,256.7 L 759.5,254.4 L 759.6,252.2 L 760.0,250.0 L 760.5,247.8 L 761.5,245.6 L 761.9,243.3 L 762.6,241.1 L 763.3,238.9 L 763.8,236.7 L 764.8,234.4 L 767.2,232.2 L 772.5,230.0 L 774.5,227.8 L 774.5,225.6 L 777.5,223.3 L 778.3,221.1 L 778.5,218.9 L 778.5,216.7 L 778.5,214.4 L 780.6,212.2 L 782.3,210.0 L 782.5,207.8 L 783.8,205.6 L 787.7,203.3 L 788.2,201.1 L 789.0,198.9 L 789.0,196.7 L 793.1,194.4 L 793.2,192.2 L 796.2,190.0 L 796.3,187.8 L 796.9,185.6 L 797.5,183.3 L 797.7,181.1 L 797.9,178.9 L 798.4,176.7 L 798.8,174.4 L 799.0,172.2 L 800.0,170.0 L 800.0,370 Z" fill="url(#h)"/>
  <polyline points="60.0,367.8 62.2,365.6 123.8,363.3 136.7,361.1 178.1,358.9 531.6,356.7 720.7,354.4 721.4,352.2 721.4,350.0 721.5,347.8 721.6,345.6 721.8,343.3 722.0,341.1 722.1,338.9 722.8,336.7 723.7,334.4 725.8,332.2 726.9,330.0 728.1,327.8 729.1,325.6 731.1,323.3 733.5,321.1 735.3,318.9 735.8,316.7 737.1,314.4 739.0,312.2 741.4,310.0 741.5,307.8 741.5,305.6 741.6,303.3 741.6,301.1 742.3,298.9 743.2,296.7 744.5,294.4 744.9,292.2 746.2,290.0 747.2,287.8 747.7,285.6 748.5,283.3 749.5,281.1 750.0,278.9 750.0,276.7 750.4,274.4 751.8,272.2 754.7,270.0 755.1,267.8 755.7,265.6 757.0,263.3 757.4,261.1 757.6,258.9 758.5,256.7 759.5,254.4 759.6,252.2 760.0,250.0 760.5,247.8 761.5,245.6 761.9,243.3 762.6,241.1 763.3,238.9 763.8,236.7 764.8,234.4 767.2,232.2 772.5,230.0 774.5,227.8 774.5,225.6 777.5,223.3 778.3,221.1 778.5,218.9 778.5,216.7 778.5,214.4 780.6,212.2 782.3,210.0 782.5,207.8 783.8,205.6 787.7,203.3 788.2,201.1 789.0,198.9 789.0,196.7 793.1,194.4 793.2,192.2 796.2,190.0 796.3,187.8 796.9,185.6 797.5,183.3 797.7,181.1 797.9,178.9 798.4,176.7 798.8,174.4 799.0,172.2 800.0,170.0" fill="none" stroke="url(#lg)" stroke-width="2" stroke-linejoin="round" stroke-linecap="round"/>

  <circle cx="800.0" cy="170.0" r="4.5" fill="#8b2500"/>
  <circle cx="800.0" cy="170.0" r="2" fill="#f5f0e8"/>
  <circle cx="721.5" cy="347.8" r="2.5" fill="#c9a227" opacity="0.8"/>
  <text x="727.5" y="350.8" font-size="8" fill="#c9a227" font-weight="600">10</text>
  <circle cx="737.1" cy="314.4" r="2.5" fill="#c9a227" opacity="0.8"/>
  <text x="743.1" y="317.4" font-size="8" fill="#c9a227" font-weight="600">25</text>
  <circle cx="757.6" cy="258.9" r="2.5" fill="#c9a227" opacity="0.8"/>
  <text x="763.6" y="261.9" font-size="8" fill="#c9a227" font-weight="600">50</text>

  <line x1="60" y1="402" x2="800" y2="402" stroke="rgba(26,25,21,0.06)"/>
  <text x="60" y="414" font-size="8" fill="rgba(26,25,21,0.25)" font-style="italic">2.2 etoiles/sem · maj 01 May 2026 03:22 UTC</text>
  <text x="800" y="414" font-size="7" fill="rgba(26,25,21,0.18)" text-anchor="end" letter-spacing="0.1em">OBSERVATOIRE MMXXVI</text>

</svg>