<svg xmlns="http://www.w3.org/2000/svg" viewBox="0 0 840 420" width="840" height="420">
  <style>
    text { font-family: system-ui, -apple-system, 'Segoe UI', sans-serif; }
  </style>
  <defs>
    <pattern id="h" patternUnits="userSpaceOnUse" width="6" height="6" patternTransform="rotate(45)">
      <line x1="0" y1="0" x2="0" y2="6" stroke="rgba(26,25,21,0.07)" stroke-width="1"/>
    </pattern>
    <linearGradient id="lg" x1="0%" y1="0%" x2="100%" y2="0%">
      <stop offset="0%" stop-color="#1a1915" stop-opacity="0.4"/>
      <stop offset="30%" stop-color="#1a1915"/>
      <stop offset="100%" stop-color="#8b2500"/>
    </linearGradient>
  </defs>

  <rect width="840" height="420" rx="4" fill="#f5f0e8"/>
  <rect x=".5" y=".5" width="839" height="419" rx="4" fill="none" stroke="rgba(26,25,21,0.12)"/>

  <!-- Header -->
  <text x="60" y="32" font-size="11" font-weight="600" letter-spacing="0.14em" fill="#1a1915">OBSERVATOIRE</text>
  <text x="165" y="32" font-size="11" fill="#c9a227" letter-spacing="0.08em">·</text>
  <text x="178" y="32" font-size="11" font-weight="500" letter-spacing="0.06em" fill="rgba(26,25,21,0.45)">scub-france/Docling-Studio</text>

  <!-- Count -->
  <text x="800" y="30" font-size="34" font-weight="800" fill="#1a1915" text-anchor="end" letter-spacing="-0.02em">97</text>
  <text x="800" y="46" font-size="10" fill="rgba(26,25,21,0.35)" text-anchor="end" font-style="italic">etoiles observees</text>

  <!-- Weekly badge -->
  <rect x="704" y="54" width="96" height="20" rx="2" fill="none" stroke="rgba(201,162,39,0.35)"/>
  <text x="752" y="67" font-size="9" font-weight="600" fill="#c9a227" text-anchor="middle" letter-spacing="0.04em">↗ +19 THIS WEEK</text>

  <line x1="60" y1="90" x2="800" y2="90" stroke="rgba(26,25,21,0.1)"/>

  <!-- Stats row -->
  <text x="152.5" y="128" font-size="26" font-weight="600" fill="#1a1915" text-anchor="middle" letter-spacing="-0.02em">97</text>
  <text x="152.5" y="146" font-size="11" fill="rgba(26,25,21,0.4)" text-anchor="middle" font-style="italic">sur la periode</text>
  <line x1="245.0" y1="98" x2="245.0" y2="152" stroke="rgba(26,25,21,0.1)"/>
  <text x="337.5" y="128" font-size="26" font-weight="600" fill="#1a1915" text-anchor="middle" letter-spacing="-0.02em">+19</text>
  <text x="337.5" y="146" font-size="11" fill="rgba(26,25,21,0.4)" text-anchor="middle" font-style="italic">cette semaine</text>
  <line x1="430.0" y1="98" x2="430.0" y2="152" stroke="rgba(26,25,21,0.1)"/>
  <text x="522.5" y="128" font-size="26" font-weight="600" fill="#1a1915" text-anchor="middle" letter-spacing="-0.02em">2.4</text>
  <text x="522.5" y="146" font-size="11" fill="rgba(26,25,21,0.4)" text-anchor="middle" font-style="italic">moy. / semaine</text>
  <line x1="615.0" y1="98" x2="615.0" y2="152" stroke="rgba(26,25,21,0.1)"/>
  <text x="707.5" y="128" font-size="26" font-weight="600" fill="#1a1915" text-anchor="middle" letter-spacing="-0.02em">8</text>
  <text x="707.5" y="146" font-size="11" fill="rgba(26,25,21,0.4)" text-anchor="middle" font-style="italic">pic journalier</text>

  <line x1="60" y1="160" x2="800" y2="160" stroke="rgba(26,25,21,0.1)"/>

  <line x1="60" y1="370.0" x2="800" y2="370.0" stroke="rgba(26,25,21,0.05)"/>
  <text x="52" y="373.0" font-size="9" fill="rgba(26,25,21,0.3)" text-anchor="end" font-weight="500">0</text>
  <line x1="60" y1="330.8" x2="800" y2="330.8" stroke="rgba(26,25,21,0.05)"/>
  <text x="52" y="333.8" font-size="9" fill="rgba(26,25,21,0.3)" text-anchor="end" font-weight="500">19</text>
  <line x1="60" y1="291.6" x2="800" y2="291.6" stroke="rgba(26,25,21,0.05)"/>
  <text x="52" y="294.6" font-size="9" fill="rgba(26,25,21,0.3)" text-anchor="end" font-weight="500">38</text>
  <line x1="60" y1="252.5" x2="800" y2="252.5" stroke="rgba(26,25,21,0.05)"/>
  <text x="52" y="255.5" font-size="9" fill="rgba(26,25,21,0.3)" text-anchor="end" font-weight="500">57</text>
  <line x1="60" y1="213.3" x2="800" y2="213.3" stroke="rgba(26,25,21,0.05)"/>
  <text x="52" y="216.3" font-size="9" fill="rgba(26,25,21,0.3)" text-anchor="end" font-weight="500">76</text>
  <line x1="60" y1="174.1" x2="800" y2="174.1" stroke="rgba(26,25,21,0.05)"/>
  <text x="52" y="177.1" font-size="9" fill="rgba(26,25,21,0.3)" text-anchor="end" font-weight="500">95</text>
  <line x1="60" y1="170.0" x2="800" y2="170.0" stroke="rgba(26,25,21,0.05)"/>
  <text x="52" y="173.0" font-size="9" fill="rgba(26,25,21,0.3)" text-anchor="end" font-weight="500">97</text>
  <text x="60.0" y="388" font-size="9" fill="rgba(26,25,21,0.3)" font-weight="500" letter-spacing="0.03em">Jul 25</text>
  <text x="123.2" y="388" font-size="9" fill="rgba(26,25,21,0.3)" font-weight="500" letter-spacing="0.03em">Aug 25</text>
  <text x="176.9" y="388" font-size="9" fill="rgba(26,25,21,0.3)" font-weight="500" letter-spacing="0.03em">Sep 25</text>
  <text x="527.0" y="388" font-size="9" fill="rgba(26,25,21,0.3)" font-weight="500" letter-spacing="0.03em">Jan 26</text>
  <text x="714.3" y="388" font-size="9" fill="rgba(26,25,21,0.3)" font-weight="500" letter-spacing="0.03em">Mar 26</text>
  <text x="716.4" y="388" font-size="9" fill="rgba(26,25,21,0.3)" font-weight="500" letter-spacing="0.03em">Apr 26</text>
  <text x="792.8" y="388" font-size="9" fill="rgba(26,25,21,0.3)" font-weight="500" letter-spacing="0.03em">May 26</text>

  <line x1="60" y1="170" x2="60" y2="370" stroke="rgba(26,25,21,0.12)"/>
  <line x1="60" y1="370" x2="800" y2="370" stroke="rgba(26,25,21,0.12)"/>

  <path d="M 60.0,370 L 60.0,367.9 L 62.2,365.9 L 123.2,363.8 L 136.0,361.8 L 176.9,359.7 L 527.0,357.6 L 714.3,355.6 L 714.9,353.5 L 715.0,351.4 L 715.0,349.4 L 715.1,347.3 L 715.4,345.3 L 715.5,343.2 L 715.6,341.1 L 716.4,339.1 L 717.2,337.0 L 719.3,334.9 L 720.4,332.9 L 721.6,330.8 L 722.6,328.8 L 724.5,326.7 L 726.9,324.6 L 728.7,322.6 L 729.2,320.5 L 730.5,318.5 L 732.3,316.4 L 734.7,314.3 L 734.8,312.3 L 734.9,310.2 L 734.9,308.1 L 734.9,306.1 L 735.6,304.0 L 736.6,302.0 L 737.9,299.9 L 738.2,297.8 L 739.5,295.8 L 740.5,293.7 L 741.0,291.6 L 741.8,289.6 L 742.8,287.5 L 743.2,285.5 L 743.3,283.4 L 743.6,281.3 L 745.0,279.3 L 747.9,277.2 L 748.3,275.2 L 748.9,273.1 L 750.2,271.0 L 750.6,269.0 L 750.8,266.9 L 751.7,264.8 L 752.6,262.8 L 752.8,260.7 L 753.2,258.7 L 753.7,256.6 L 754.6,254.5 L 755.0,252.5 L 755.8,250.4 L 756.4,248.4 L 756.9,246.3 L 757.9,244.2 L 760.3,242.2 L 765.6,240.1 L 767.5,238.0 L 767.5,236.0 L 770.5,233.9 L 771.3,231.9 L 771.5,229.8 L 771.5,227.7 L 771.5,225.7 L 773.5,223.6 L 775.3,221.5 L 775.4,219.5 L 776.7,217.4 L 780.6,215.4 L 781.1,213.3 L 781.9,211.2 L 781.9,209.2 L 786.0,207.1 L 786.1,205.1 L 789.1,203.0 L 789.1,200.9 L 789.8,198.9 L 790.3,196.8 L 790.5,194.7 L 790.7,192.7 L 791.2,190.6 L 791.6,188.6 L 791.8,186.5 L 792.8,184.4 L 793.7,182.4 L 794.3,180.3 L 795.0,178.2 L 796.0,176.2 L 799.0,174.1 L 799.3,172.1 L 800.0,170.0 L 800.0,370 Z" fill="url(#h)"/>
  <polyline points="60.0,367.9 62.2,365.9 123.2,363.8 136.0,361.8 176.9,359.7 527.0,357.6 714.3,355.6 714.9,353.5 715.0,351.4 715.0,349.4 715.1,347.3 715.4,345.3 715.5,343.2 715.6,341.1 716.4,339.1 717.2,337.0 719.3,334.9 720.4,332.9 721.6,330.8 722.6,328.8 724.5,326.7 726.9,324.6 728.7,322.6 729.2,320.5 730.5,318.5 732.3,316.4 734.7,314.3 734.8,312.3 734.9,310.2 734.9,308.1 734.9,306.1 735.6,304.0 736.6,302.0 737.9,299.9 738.2,297.8 739.5,295.8 740.5,293.7 741.0,291.6 741.8,289.6 742.8,287.5 743.2,285.5 743.3,283.4 743.6,281.3 745.0,279.3 747.9,277.2 748.3,275.2 748.9,273.1 750.2,271.0 750.6,269.0 750.8,266.9 751.7,264.8 752.6,262.8 752.8,260.7 753.2,258.7 753.7,256.6 754.6,254.5 755.0,252.5 755.8,250.4 756.4,248.4 756.9,246.3 757.9,244.2 760.3,242.2 765.6,240.1 767.5,238.0 767.5,236.0 770.5,233.9 771.3,231.9 771.5,229.8 771.5,227.7 771.5,225.7 773.5,223.6 775.3,221.5 775.4,219.5 776.7,217.4 780.6,215.4 781.1,213.3 781.9,211.2 781.9,209.2 786.0,207.1 786.1,205.1 789.1,203.0 789.1,200.9 789.8,198.9 790.3,196.8 790.5,194.7 790.7,192.7 791.2,190.6 791.6,188.6 791.8,186.5 792.8,184.4 793.7,182.4 794.3,180.3 795.0,178.2 796.0,176.2 799.0,174.1 799.3,172.1 800.0,170.0" fill="none" stroke="url(#lg)" stroke-width="2" stroke-linejoin="round" stroke-linecap="round"/>

  <circle cx="800.0" cy="170.0" r="4.5" fill="#8b2500"/>
  <circle cx="800.0" cy="170.0" r="2" fill="#f5f0e8"/>
  <circle cx="715.0" cy="349.4" r="2.5" fill="#c9a227" opacity="0.8"/>
  <text x="721.0" y="352.4" font-size="8" fill="#c9a227" font-weight="600">10</text>
  <circle cx="730.5" cy="318.5" r="2.5" fill="#c9a227" opacity="0.8"/>
  <text x="736.5" y="321.5" font-size="8" fill="#c9a227" font-weight="600">25</text>
  <circle cx="750.8" cy="266.9" r="2.5" fill="#c9a227" opacity="0.8"/>
  <text x="756.8" y="269.9" font-size="8" fill="#c9a227" font-weight="600">50</text>

  <line x1="60" y1="402" x2="800" y2="402" stroke="rgba(26,25,21,0.06)"/>
  <text x="60" y="414" font-size="8" fill="rgba(26,25,21,0.25)" font-style="italic">2.4 etoiles/sem · maj 04 May 2026 08:29 UTC</text>
  <text x="800" y="414" font-size="7" fill="rgba(26,25,21,0.18)" text-anchor="end" letter-spacing="0.1em">OBSERVATOIRE MMXXVI</text>

</svg>