<svg xmlns="http://www.w3.org/2000/svg" viewBox="0 0 840 420" width="840" height="420">
  <style>
    text { font-family: system-ui, -apple-system, 'Segoe UI', sans-serif; }
  </style>
  <defs>
    <pattern id="h" patternUnits="userSpaceOnUse" width="6" height="6" patternTransform="rotate(45)">
      <line x1="0" y1="0" x2="0" y2="6" stroke="rgba(26,25,21,0.07)" stroke-width="1"/>
    </pattern>
    <linearGradient id="lg" x1="0%" y1="0%" x2="100%" y2="0%">
      <stop offset="0%" stop-color="#1a1915" stop-opacity="0.4"/>
      <stop offset="30%" stop-color="#1a1915"/>
      <stop offset="100%" stop-color="#8b2500"/>
    </linearGradient>
  </defs>

  <rect width="840" height="420" rx="4" fill="#f5f0e8"/>
  <rect x=".5" y=".5" width="839" height="419" rx="4" fill="none" stroke="rgba(26,25,21,0.12)"/>

  <!-- Header -->
  <text x="60" y="32" font-size="11" font-weight="600" letter-spacing="0.14em" fill="#1a1915">OBSERVATOIRE</text>
  <text x="165" y="32" font-size="11" fill="#c9a227" letter-spacing="0.08em">·</text>
  <text x="178" y="32" font-size="11" font-weight="500" letter-spacing="0.06em" fill="rgba(26,25,21,0.45)">scub-france/Docling-Studio</text>

  <!-- Count -->
  <text x="800" y="30" font-size="34" font-weight="800" fill="#1a1915" text-anchor="end" letter-spacing="-0.02em">85</text>
  <text x="800" y="46" font-size="10" fill="rgba(26,25,21,0.35)" text-anchor="end" font-style="italic">etoiles observees</text>

  <!-- Weekly badge -->
  <rect x="704" y="54" width="96" height="20" rx="2" fill="none" stroke="rgba(201,162,39,0.35)"/>
  <text x="752" y="67" font-size="9" font-weight="600" fill="#c9a227" text-anchor="middle" letter-spacing="0.04em">↗ +15 THIS WEEK</text>

  <line x1="60" y1="90" x2="800" y2="90" stroke="rgba(26,25,21,0.1)"/>

  <!-- Stats row -->
  <text x="152.5" y="128" font-size="26" font-weight="600" fill="#1a1915" text-anchor="middle" letter-spacing="-0.02em">85</text>
  <text x="152.5" y="146" font-size="11" fill="rgba(26,25,21,0.4)" text-anchor="middle" font-style="italic">sur la periode</text>
  <line x1="245.0" y1="98" x2="245.0" y2="152" stroke="rgba(26,25,21,0.1)"/>
  <text x="337.5" y="128" font-size="26" font-weight="600" fill="#1a1915" text-anchor="middle" letter-spacing="-0.02em">+15</text>
  <text x="337.5" y="146" font-size="11" fill="rgba(26,25,21,0.4)" text-anchor="middle" font-style="italic">cette semaine</text>
  <line x1="430.0" y1="98" x2="430.0" y2="152" stroke="rgba(26,25,21,0.1)"/>
  <text x="522.5" y="128" font-size="26" font-weight="600" fill="#1a1915" text-anchor="middle" letter-spacing="-0.02em">2.1</text>
  <text x="522.5" y="146" font-size="11" fill="rgba(26,25,21,0.4)" text-anchor="middle" font-style="italic">moy. / semaine</text>
  <line x1="615.0" y1="98" x2="615.0" y2="152" stroke="rgba(26,25,21,0.1)"/>
  <text x="707.5" y="128" font-size="26" font-weight="600" fill="#1a1915" text-anchor="middle" letter-spacing="-0.02em">8</text>
  <text x="707.5" y="146" font-size="11" fill="rgba(26,25,21,0.4)" text-anchor="middle" font-style="italic">pic journalier</text>

  <line x1="60" y1="160" x2="800" y2="160" stroke="rgba(26,25,21,0.1)"/>

  <line x1="60" y1="370.0" x2="800" y2="370.0" stroke="rgba(26,25,21,0.05)"/>
  <text x="52" y="373.0" font-size="9" fill="rgba(26,25,21,0.3)" text-anchor="end" font-weight="500">0</text>
  <line x1="60" y1="330.0" x2="800" y2="330.0" stroke="rgba(26,25,21,0.05)"/>
  <text x="52" y="333.0" font-size="9" fill="rgba(26,25,21,0.3)" text-anchor="end" font-weight="500">17</text>
  <line x1="60" y1="290.0" x2="800" y2="290.0" stroke="rgba(26,25,21,0.05)"/>
  <text x="52" y="293.0" font-size="9" fill="rgba(26,25,21,0.3)" text-anchor="end" font-weight="500">34</text>
  <line x1="60" y1="250.0" x2="800" y2="250.0" stroke="rgba(26,25,21,0.05)"/>
  <text x="52" y="253.0" font-size="9" fill="rgba(26,25,21,0.3)" text-anchor="end" font-weight="500">51</text>
  <line x1="60" y1="210.0" x2="800" y2="210.0" stroke="rgba(26,25,21,0.05)"/>
  <text x="52" y="213.0" font-size="9" fill="rgba(26,25,21,0.3)" text-anchor="end" font-weight="500">68</text>
  <line x1="60" y1="170.0" x2="800" y2="170.0" stroke="rgba(26,25,21,0.05)"/>
  <text x="52" y="173.0" font-size="9" fill="rgba(26,25,21,0.3)" text-anchor="end" font-weight="500">85</text>
  <text x="60.0" y="388" font-size="9" fill="rgba(26,25,21,0.3)" font-weight="500" letter-spacing="0.03em">Jul 25</text>
  <text x="124.0" y="388" font-size="9" fill="rgba(26,25,21,0.3)" font-weight="500" letter-spacing="0.03em">Aug 25</text>
  <text x="178.4" y="388" font-size="9" fill="rgba(26,25,21,0.3)" font-weight="500" letter-spacing="0.03em">Sep 25</text>
  <text x="533.1" y="388" font-size="9" fill="rgba(26,25,21,0.3)" font-weight="500" letter-spacing="0.03em">Jan 26</text>
  <text x="722.8" y="388" font-size="9" fill="rgba(26,25,21,0.3)" font-weight="500" letter-spacing="0.03em">Mar 26</text>
  <text x="724.9" y="388" font-size="9" fill="rgba(26,25,21,0.3)" font-weight="500" letter-spacing="0.03em">Apr 26</text>

  <line x1="60" y1="170" x2="60" y2="370" stroke="rgba(26,25,21,0.12)"/>
  <line x1="60" y1="370" x2="800" y2="370" stroke="rgba(26,25,21,0.12)"/>

  <path d="M 60.0,370 L 60.0,367.6 L 62.3,365.3 L 124.0,362.9 L 137.0,360.6 L 178.4,358.2 L 533.1,355.9 L 722.8,353.5 L 723.4,351.2 L 723.5,348.8 L 723.5,346.5 L 723.6,344.1 L 723.9,341.8 L 724.0,339.4 L 724.1,337.1 L 724.9,334.7 L 725.7,332.4 L 727.8,330.0 L 728.9,327.6 L 730.2,325.3 L 731.2,322.9 L 733.2,320.6 L 735.5,318.2 L 737.4,315.9 L 737.9,313.5 L 739.2,311.2 L 741.1,308.8 L 743.5,306.5 L 743.6,304.1 L 743.6,301.8 L 743.7,299.4 L 743.7,297.1 L 744.4,294.7 L 745.4,292.4 L 746.7,290.0 L 747.1,287.6 L 748.3,285.3 L 749.3,282.9 L 749.9,280.6 L 750.7,278.2 L 751.7,275.9 L 752.1,273.5 L 752.2,271.2 L 752.5,268.8 L 753.9,266.5 L 756.9,264.1 L 757.3,261.8 L 757.8,259.4 L 759.1,257.1 L 759.5,254.7 L 759.7,252.4 L 760.7,250.0 L 761.6,247.6 L 761.8,245.3 L 762.2,242.9 L 762.7,240.6 L 763.6,238.2 L 764.1,235.9 L 764.8,233.5 L 765.5,231.2 L 766.0,228.8 L 767.0,226.5 L 769.4,224.1 L 774.7,221.8 L 776.7,219.4 L 776.7,217.1 L 779.7,214.7 L 780.5,212.4 L 780.7,210.0 L 780.7,207.6 L 780.8,205.3 L 782.8,202.9 L 784.6,200.6 L 784.7,198.2 L 786.0,195.9 L 790.0,193.5 L 790.5,191.2 L 791.3,188.8 L 791.3,186.5 L 795.4,184.1 L 795.5,181.8 L 798.5,179.4 L 798.5,177.1 L 799.2,174.7 L 799.8,172.4 L 800.0,170.0 L 800.0,370 Z" fill="url(#h)"/>
  <polyline points="60.0,367.6 62.3,365.3 124.0,362.9 137.0,360.6 178.4,358.2 533.1,355.9 722.8,353.5 723.4,351.2 723.5,348.8 723.5,346.5 723.6,344.1 723.9,341.8 724.0,339.4 724.1,337.1 724.9,334.7 725.7,332.4 727.8,330.0 728.9,327.6 730.2,325.3 731.2,322.9 733.2,320.6 735.5,318.2 737.4,315.9 737.9,313.5 739.2,311.2 741.1,308.8 743.5,306.5 743.6,304.1 743.6,301.8 743.7,299.4 743.7,297.1 744.4,294.7 745.4,292.4 746.7,290.0 747.1,287.6 748.3,285.3 749.3,282.9 749.9,280.6 750.7,278.2 751.7,275.9 752.1,273.5 752.2,271.2 752.5,268.8 753.9,266.5 756.9,264.1 757.3,261.8 757.8,259.4 759.1,257.1 759.5,254.7 759.7,252.4 760.7,250.0 761.6,247.6 761.8,245.3 762.2,242.9 762.7,240.6 763.6,238.2 764.1,235.9 764.8,233.5 765.5,231.2 766.0,228.8 767.0,226.5 769.4,224.1 774.7,221.8 776.7,219.4 776.7,217.1 779.7,214.7 780.5,212.4 780.7,210.0 780.7,207.6 780.8,205.3 782.8,202.9 784.6,200.6 784.7,198.2 786.0,195.9 790.0,193.5 790.5,191.2 791.3,188.8 791.3,186.5 795.4,184.1 795.5,181.8 798.5,179.4 798.5,177.1 799.2,174.7 799.8,172.4 800.0,170.0" fill="none" stroke="url(#lg)" stroke-width="2" stroke-linejoin="round" stroke-linecap="round"/>

  <circle cx="800.0" cy="170.0" r="4.5" fill="#8b2500"/>
  <circle cx="800.0" cy="170.0" r="2" fill="#f5f0e8"/>
  <circle cx="723.5" cy="346.5" r="2.5" fill="#c9a227" opacity="0.8"/>
  <text x="729.5" y="349.5" font-size="8" fill="#c9a227" font-weight="600">10</text>
  <circle cx="739.2" cy="311.2" r="2.5" fill="#c9a227" opacity="0.8"/>
  <text x="745.2" y="314.2" font-size="8" fill="#c9a227" font-weight="600">25</text>
  <circle cx="759.7" cy="252.4" r="2.5" fill="#c9a227" opacity="0.8"/>
  <text x="765.7" y="255.4" font-size="8" fill="#c9a227" font-weight="600">50</text>

  <line x1="60" y1="402" x2="800" y2="402" stroke="rgba(26,25,21,0.06)"/>
  <text x="60" y="414" font-size="8" fill="rgba(26,25,21,0.25)" font-style="italic">2.1 etoiles/sem · maj 30 Apr 2026 02:52 UTC</text>
  <text x="800" y="414" font-size="7" fill="rgba(26,25,21,0.18)" text-anchor="end" letter-spacing="0.1em">OBSERVATOIRE MMXXVI</text>

</svg>