<svg xmlns="http://www.w3.org/2000/svg" viewBox="0 0 840 420" width="840" height="420">
  <style>
    text { font-family: system-ui, -apple-system, 'Segoe UI', sans-serif; }
  </style>
  <defs>
    <pattern id="h" patternUnits="userSpaceOnUse" width="6" height="6" patternTransform="rotate(45)">
      <line x1="0" y1="0" x2="0" y2="6" stroke="rgba(26,25,21,0.07)" stroke-width="1"/>
    </pattern>
    <linearGradient id="lg" x1="0%" y1="0%" x2="100%" y2="0%">
      <stop offset="0%" stop-color="#1a1915" stop-opacity="0.4"/>
      <stop offset="30%" stop-color="#1a1915"/>
      <stop offset="100%" stop-color="#8b2500"/>
    </linearGradient>
  </defs>

  <rect width="840" height="420" rx="4" fill="#f5f0e8"/>
  <rect x=".5" y=".5" width="839" height="419" rx="4" fill="none" stroke="rgba(26,25,21,0.12)"/>

  <!-- Header -->
  <text x="60" y="32" font-size="11" font-weight="600" letter-spacing="0.14em" fill="#1a1915">OBSERVATOIRE</text>
  <text x="165" y="32" font-size="11" fill="#c9a227" letter-spacing="0.08em">·</text>
  <text x="178" y="32" font-size="11" font-weight="500" letter-spacing="0.06em" fill="rgba(26,25,21,0.45)">scub-france/Docling-Studio</text>

  <!-- Count -->
  <text x="800" y="30" font-size="34" font-weight="800" fill="#1a1915" text-anchor="end" letter-spacing="-0.02em">66</text>
  <text x="800" y="46" font-size="10" fill="rgba(26,25,21,0.35)" text-anchor="end" font-style="italic">etoiles observees</text>

  <!-- Weekly badge -->
  <rect x="704" y="54" width="96" height="20" rx="2" fill="none" stroke="rgba(201,162,39,0.35)"/>
  <text x="752" y="67" font-size="9" font-weight="600" fill="#c9a227" text-anchor="middle" letter-spacing="0.04em">↗ +15 THIS WEEK</text>

  <line x1="60" y1="90" x2="800" y2="90" stroke="rgba(26,25,21,0.1)"/>

  <!-- Stats row -->
  <text x="152.5" y="128" font-size="26" font-weight="600" fill="#1a1915" text-anchor="middle" letter-spacing="-0.02em">66</text>
  <text x="152.5" y="146" font-size="11" fill="rgba(26,25,21,0.4)" text-anchor="middle" font-style="italic">sur la periode</text>
  <line x1="245.0" y1="98" x2="245.0" y2="152" stroke="rgba(26,25,21,0.1)"/>
  <text x="337.5" y="128" font-size="26" font-weight="600" fill="#1a1915" text-anchor="middle" letter-spacing="-0.02em">+15</text>
  <text x="337.5" y="146" font-size="11" fill="rgba(26,25,21,0.4)" text-anchor="middle" font-style="italic">cette semaine</text>
  <line x1="430.0" y1="98" x2="430.0" y2="152" stroke="rgba(26,25,21,0.1)"/>
  <text x="522.5" y="128" font-size="26" font-weight="600" fill="#1a1915" text-anchor="middle" letter-spacing="-0.02em">1.7</text>
  <text x="522.5" y="146" font-size="11" fill="rgba(26,25,21,0.4)" text-anchor="middle" font-style="italic">moy. / semaine</text>
  <line x1="615.0" y1="98" x2="615.0" y2="152" stroke="rgba(26,25,21,0.1)"/>
  <text x="707.5" y="128" font-size="26" font-weight="600" fill="#1a1915" text-anchor="middle" letter-spacing="-0.02em">8</text>
  <text x="707.5" y="146" font-size="11" fill="rgba(26,25,21,0.4)" text-anchor="middle" font-style="italic">pic journalier</text>

  <line x1="60" y1="160" x2="800" y2="160" stroke="rgba(26,25,21,0.1)"/>

  <line x1="60" y1="370.0" x2="800" y2="370.0" stroke="rgba(26,25,21,0.05)"/>
  <text x="52" y="373.0" font-size="9" fill="rgba(26,25,21,0.3)" text-anchor="end" font-weight="500">0</text>
  <line x1="60" y1="330.6" x2="800" y2="330.6" stroke="rgba(26,25,21,0.05)"/>
  <text x="52" y="333.6" font-size="9" fill="rgba(26,25,21,0.3)" text-anchor="end" font-weight="500">13</text>
  <line x1="60" y1="291.2" x2="800" y2="291.2" stroke="rgba(26,25,21,0.05)"/>
  <text x="52" y="294.2" font-size="9" fill="rgba(26,25,21,0.3)" text-anchor="end" font-weight="500">26</text>
  <line x1="60" y1="251.8" x2="800" y2="251.8" stroke="rgba(26,25,21,0.05)"/>
  <text x="52" y="254.8" font-size="9" fill="rgba(26,25,21,0.3)" text-anchor="end" font-weight="500">39</text>
  <line x1="60" y1="212.4" x2="800" y2="212.4" stroke="rgba(26,25,21,0.05)"/>
  <text x="52" y="215.4" font-size="9" fill="rgba(26,25,21,0.3)" text-anchor="end" font-weight="500">52</text>
  <line x1="60" y1="173.0" x2="800" y2="173.0" stroke="rgba(26,25,21,0.05)"/>
  <text x="52" y="176.0" font-size="9" fill="rgba(26,25,21,0.3)" text-anchor="end" font-weight="500">65</text>
  <line x1="60" y1="170.0" x2="800" y2="170.0" stroke="rgba(26,25,21,0.05)"/>
  <text x="52" y="173.0" font-size="9" fill="rgba(26,25,21,0.3)" text-anchor="end" font-weight="500">66</text>
  <text x="60.0" y="388" font-size="9" fill="rgba(26,25,21,0.3)" font-weight="500" letter-spacing="0.03em">Jul 25</text>
  <text x="125.8" y="388" font-size="9" fill="rgba(26,25,21,0.3)" font-weight="500" letter-spacing="0.03em">Aug 25</text>
  <text x="181.8" y="388" font-size="9" fill="rgba(26,25,21,0.3)" font-weight="500" letter-spacing="0.03em">Sep 25</text>
  <text x="546.4" y="388" font-size="9" fill="rgba(26,25,21,0.3)" font-weight="500" letter-spacing="0.03em">Jan 26</text>
  <text x="741.4" y="388" font-size="9" fill="rgba(26,25,21,0.3)" font-weight="500" letter-spacing="0.03em">Mar 26</text>
  <text x="743.6" y="388" font-size="9" fill="rgba(26,25,21,0.3)" font-weight="500" letter-spacing="0.03em">Apr 26</text>

  <line x1="60" y1="170" x2="60" y2="370" stroke="rgba(26,25,21,0.12)"/>
  <line x1="60" y1="370" x2="800" y2="370" stroke="rgba(26,25,21,0.12)"/>

  <path d="M 60.0,370 L 60.0,367.0 L 62.3,363.9 L 125.8,360.9 L 139.1,357.9 L 181.8,354.8 L 546.4,351.8 L 741.4,348.8 L 742.1,345.8 L 742.2,342.7 L 742.2,339.7 L 742.3,336.7 L 742.6,333.6 L 742.7,330.6 L 742.8,327.6 L 743.6,324.5 L 744.5,321.5 L 746.6,318.5 L 747.8,315.5 L 749.1,312.4 L 750.1,309.4 L 752.1,306.4 L 754.6,303.3 L 756.5,300.3 L 757.0,297.3 L 758.4,294.2 L 760.3,291.2 L 762.8,288.2 L 762.8,285.2 L 762.9,282.1 L 763.0,279.1 L 763.0,276.1 L 763.7,273.0 L 764.7,270.0 L 766.0,267.0 L 766.4,263.9 L 767.7,260.9 L 768.8,257.9 L 769.3,254.8 L 770.1,251.8 L 771.2,248.8 L 771.6,245.8 L 771.7,242.7 L 772.0,239.7 L 773.5,236.7 L 776.5,233.6 L 776.9,230.6 L 777.5,227.6 L 778.8,224.5 L 779.2,221.5 L 779.5,218.5 L 780.4,215.5 L 781.4,212.4 L 781.6,209.4 L 782.0,206.4 L 782.5,203.3 L 783.5,200.3 L 783.9,197.3 L 784.7,194.2 L 785.4,191.2 L 785.9,188.2 L 786.9,185.2 L 789.4,182.1 L 794.9,179.1 L 796.9,176.1 L 796.9,173.0 L 800.0,170.0 L 800.0,370 Z" fill="url(#h)"/>
  <polyline points="60.0,367.0 62.3,363.9 125.8,360.9 139.1,357.9 181.8,354.8 546.4,351.8 741.4,348.8 742.1,345.8 742.2,342.7 742.2,339.7 742.3,336.7 742.6,333.6 742.7,330.6 742.8,327.6 743.6,324.5 744.5,321.5 746.6,318.5 747.8,315.5 749.1,312.4 750.1,309.4 752.1,306.4 754.6,303.3 756.5,300.3 757.0,297.3 758.4,294.2 760.3,291.2 762.8,288.2 762.8,285.2 762.9,282.1 763.0,279.1 763.0,276.1 763.7,273.0 764.7,270.0 766.0,267.0 766.4,263.9 767.7,260.9 768.8,257.9 769.3,254.8 770.1,251.8 771.2,248.8 771.6,245.8 771.7,242.7 772.0,239.7 773.5,236.7 776.5,233.6 776.9,230.6 777.5,227.6 778.8,224.5 779.2,221.5 779.5,218.5 780.4,215.5 781.4,212.4 781.6,209.4 782.0,206.4 782.5,203.3 783.5,200.3 783.9,197.3 784.7,194.2 785.4,191.2 785.9,188.2 786.9,185.2 789.4,182.1 794.9,179.1 796.9,176.1 796.9,173.0 800.0,170.0" fill="none" stroke="url(#lg)" stroke-width="2" stroke-linejoin="round" stroke-linecap="round"/>

  <circle cx="800.0" cy="170.0" r="4.5" fill="#8b2500"/>
  <circle cx="800.0" cy="170.0" r="2" fill="#f5f0e8"/>
  <circle cx="742.2" cy="339.7" r="2.5" fill="#c9a227" opacity="0.8"/>
  <text x="748.2" y="342.7" font-size="8" fill="#c9a227" font-weight="600">10</text>
  <circle cx="758.4" cy="294.2" r="2.5" fill="#c9a227" opacity="0.8"/>
  <text x="764.4" y="297.2" font-size="8" fill="#c9a227" font-weight="600">25</text>
  <circle cx="779.5" cy="218.5" r="2.5" fill="#c9a227" opacity="0.8"/>
  <text x="785.5" y="221.5" font-size="8" fill="#c9a227" font-weight="600">50</text>

  <line x1="60" y1="402" x2="800" y2="402" stroke="rgba(26,25,21,0.06)"/>
  <text x="60" y="414" font-size="8" fill="rgba(26,25,21,0.25)" font-style="italic">1.7 etoiles/sem · maj 22 Apr 2026 07:47 UTC</text>
  <text x="800" y="414" font-size="7" fill="rgba(26,25,21,0.18)" text-anchor="end" letter-spacing="0.1em">OBSERVATOIRE MMXXVI</text>

</svg>