<svg xmlns="http://www.w3.org/2000/svg" viewBox="0 0 840 420" width="840" height="420">
  <style>
    text { font-family: system-ui, -apple-system, 'Segoe UI', sans-serif; }
  </style>
  <defs>
    <pattern id="h" patternUnits="userSpaceOnUse" width="6" height="6" patternTransform="rotate(45)">
      <line x1="0" y1="0" x2="0" y2="6" stroke="rgba(26,25,21,0.07)" stroke-width="1"/>
    </pattern>
    <linearGradient id="lg" x1="0%" y1="0%" x2="100%" y2="0%">
      <stop offset="0%" stop-color="#1a1915" stop-opacity="0.4"/>
      <stop offset="30%" stop-color="#1a1915"/>
      <stop offset="100%" stop-color="#8b2500"/>
    </linearGradient>
  </defs>

  <rect width="840" height="420" rx="4" fill="#f5f0e8"/>
  <rect x=".5" y=".5" width="839" height="419" rx="4" fill="none" stroke="rgba(26,25,21,0.12)"/>

  <!-- Header -->
  <text x="60" y="32" font-size="11" font-weight="600" letter-spacing="0.14em" fill="#1a1915">OBSERVATOIRE</text>
  <text x="165" y="32" font-size="11" fill="#c9a227" letter-spacing="0.08em">·</text>
  <text x="178" y="32" font-size="11" font-weight="500" letter-spacing="0.06em" fill="rgba(26,25,21,0.45)">scub-france/Docling-Studio</text>

  <!-- Count -->
  <text x="800" y="30" font-size="34" font-weight="800" fill="#1a1915" text-anchor="end" letter-spacing="-0.02em">80</text>
  <text x="800" y="46" font-size="10" fill="rgba(26,25,21,0.35)" text-anchor="end" font-style="italic">etoiles observees</text>

  <!-- Weekly badge -->
  <rect x="704" y="54" width="96" height="20" rx="2" fill="none" stroke="rgba(201,162,39,0.35)"/>
  <text x="752" y="67" font-size="9" font-weight="600" fill="#c9a227" text-anchor="middle" letter-spacing="0.04em">↗ +14 THIS WEEK</text>

  <line x1="60" y1="90" x2="800" y2="90" stroke="rgba(26,25,21,0.1)"/>

  <!-- Stats row -->
  <text x="152.5" y="128" font-size="26" font-weight="600" fill="#1a1915" text-anchor="middle" letter-spacing="-0.02em">80</text>
  <text x="152.5" y="146" font-size="11" fill="rgba(26,25,21,0.4)" text-anchor="middle" font-style="italic">sur la periode</text>
  <line x1="245.0" y1="98" x2="245.0" y2="152" stroke="rgba(26,25,21,0.1)"/>
  <text x="337.5" y="128" font-size="26" font-weight="600" fill="#1a1915" text-anchor="middle" letter-spacing="-0.02em">+14</text>
  <text x="337.5" y="146" font-size="11" fill="rgba(26,25,21,0.4)" text-anchor="middle" font-style="italic">cette semaine</text>
  <line x1="430.0" y1="98" x2="430.0" y2="152" stroke="rgba(26,25,21,0.1)"/>
  <text x="522.5" y="128" font-size="26" font-weight="600" fill="#1a1915" text-anchor="middle" letter-spacing="-0.02em">2.0</text>
  <text x="522.5" y="146" font-size="11" fill="rgba(26,25,21,0.4)" text-anchor="middle" font-style="italic">moy. / semaine</text>
  <line x1="615.0" y1="98" x2="615.0" y2="152" stroke="rgba(26,25,21,0.1)"/>
  <text x="707.5" y="128" font-size="26" font-weight="600" fill="#1a1915" text-anchor="middle" letter-spacing="-0.02em">8</text>
  <text x="707.5" y="146" font-size="11" fill="rgba(26,25,21,0.4)" text-anchor="middle" font-style="italic">pic journalier</text>

  <line x1="60" y1="160" x2="800" y2="160" stroke="rgba(26,25,21,0.1)"/>

  <line x1="60" y1="370.0" x2="800" y2="370.0" stroke="rgba(26,25,21,0.05)"/>
  <text x="52" y="373.0" font-size="9" fill="rgba(26,25,21,0.3)" text-anchor="end" font-weight="500">0</text>
  <line x1="60" y1="330.0" x2="800" y2="330.0" stroke="rgba(26,25,21,0.05)"/>
  <text x="52" y="333.0" font-size="9" fill="rgba(26,25,21,0.3)" text-anchor="end" font-weight="500">16</text>
  <line x1="60" y1="290.0" x2="800" y2="290.0" stroke="rgba(26,25,21,0.05)"/>
  <text x="52" y="293.0" font-size="9" fill="rgba(26,25,21,0.3)" text-anchor="end" font-weight="500">32</text>
  <line x1="60" y1="250.0" x2="800" y2="250.0" stroke="rgba(26,25,21,0.05)"/>
  <text x="52" y="253.0" font-size="9" fill="rgba(26,25,21,0.3)" text-anchor="end" font-weight="500">48</text>
  <line x1="60" y1="210.0" x2="800" y2="210.0" stroke="rgba(26,25,21,0.05)"/>
  <text x="52" y="213.0" font-size="9" fill="rgba(26,25,21,0.3)" text-anchor="end" font-weight="500">64</text>
  <line x1="60" y1="170.0" x2="800" y2="170.0" stroke="rgba(26,25,21,0.05)"/>
  <text x="52" y="173.0" font-size="9" fill="rgba(26,25,21,0.3)" text-anchor="end" font-weight="500">80</text>
  <text x="60.0" y="388" font-size="9" fill="rgba(26,25,21,0.3)" font-weight="500" letter-spacing="0.03em">Jul 25</text>
  <text x="124.4" y="388" font-size="9" fill="rgba(26,25,21,0.3)" font-weight="500" letter-spacing="0.03em">Aug 25</text>
  <text x="179.2" y="388" font-size="9" fill="rgba(26,25,21,0.3)" font-weight="500" letter-spacing="0.03em">Sep 25</text>
  <text x="536.0" y="388" font-size="9" fill="rgba(26,25,21,0.3)" font-weight="500" letter-spacing="0.03em">Jan 26</text>
  <text x="726.8" y="388" font-size="9" fill="rgba(26,25,21,0.3)" font-weight="500" letter-spacing="0.03em">Mar 26</text>
  <text x="728.9" y="388" font-size="9" fill="rgba(26,25,21,0.3)" font-weight="500" letter-spacing="0.03em">Apr 26</text>

  <line x1="60" y1="170" x2="60" y2="370" stroke="rgba(26,25,21,0.12)"/>
  <line x1="60" y1="370" x2="800" y2="370" stroke="rgba(26,25,21,0.12)"/>

  <path d="M 60.0,370 L 60.0,367.5 L 62.3,365.0 L 124.4,362.5 L 137.4,360.0 L 179.2,357.5 L 536.0,355.0 L 726.8,352.5 L 727.4,350.0 L 727.5,347.5 L 727.6,345.0 L 727.7,342.5 L 727.9,340.0 L 728.1,337.5 L 728.2,335.0 L 728.9,332.5 L 729.8,330.0 L 731.9,327.5 L 733.0,325.0 L 734.3,322.5 L 735.3,320.0 L 737.2,317.5 L 739.7,315.0 L 741.5,312.5 L 742.0,310.0 L 743.4,307.5 L 745.2,305.0 L 747.7,302.5 L 747.7,300.0 L 747.8,297.5 L 747.9,295.0 L 747.9,292.5 L 748.6,290.0 L 749.5,287.5 L 750.8,285.0 L 751.2,282.5 L 752.5,280.0 L 753.5,277.5 L 754.0,275.0 L 754.9,272.5 L 755.9,270.0 L 756.3,267.5 L 756.4,265.0 L 756.7,262.5 L 758.1,260.0 L 761.1,257.5 L 761.5,255.0 L 762.1,252.5 L 763.4,250.0 L 763.8,247.5 L 764.0,245.0 L 765.0,242.5 L 765.9,240.0 L 766.1,237.5 L 766.5,235.0 L 767.0,232.5 L 767.9,230.0 L 768.3,227.5 L 769.1,225.0 L 769.8,222.5 L 770.3,220.0 L 771.3,217.5 L 773.7,215.0 L 779.1,212.5 L 781.1,210.0 L 781.1,207.5 L 784.1,205.0 L 784.9,202.5 L 785.1,200.0 L 785.1,197.5 L 785.1,195.0 L 787.2,192.5 L 789.0,190.0 L 789.1,187.5 L 790.4,185.0 L 794.4,182.5 L 794.9,180.0 L 795.7,177.5 L 795.7,175.0 L 799.9,172.5 L 800.0,170.0 L 800.0,370 Z" fill="url(#h)"/>
  <polyline points="60.0,367.5 62.3,365.0 124.4,362.5 137.4,360.0 179.2,357.5 536.0,355.0 726.8,352.5 727.4,350.0 727.5,347.5 727.6,345.0 727.7,342.5 727.9,340.0 728.1,337.5 728.2,335.0 728.9,332.5 729.8,330.0 731.9,327.5 733.0,325.0 734.3,322.5 735.3,320.0 737.2,317.5 739.7,315.0 741.5,312.5 742.0,310.0 743.4,307.5 745.2,305.0 747.7,302.5 747.7,300.0 747.8,297.5 747.9,295.0 747.9,292.5 748.6,290.0 749.5,287.5 750.8,285.0 751.2,282.5 752.5,280.0 753.5,277.5 754.0,275.0 754.9,272.5 755.9,270.0 756.3,267.5 756.4,265.0 756.7,262.5 758.1,260.0 761.1,257.5 761.5,255.0 762.1,252.5 763.4,250.0 763.8,247.5 764.0,245.0 765.0,242.5 765.9,240.0 766.1,237.5 766.5,235.0 767.0,232.5 767.9,230.0 768.3,227.5 769.1,225.0 769.8,222.5 770.3,220.0 771.3,217.5 773.7,215.0 779.1,212.5 781.1,210.0 781.1,207.5 784.1,205.0 784.9,202.5 785.1,200.0 785.1,197.5 785.1,195.0 787.2,192.5 789.0,190.0 789.1,187.5 790.4,185.0 794.4,182.5 794.9,180.0 795.7,177.5 795.7,175.0 799.9,172.5 800.0,170.0" fill="none" stroke="url(#lg)" stroke-width="2" stroke-linejoin="round" stroke-linecap="round"/>

  <circle cx="800.0" cy="170.0" r="4.5" fill="#8b2500"/>
  <circle cx="800.0" cy="170.0" r="2" fill="#f5f0e8"/>
  <circle cx="727.6" cy="345.0" r="2.5" fill="#c9a227" opacity="0.8"/>
  <text x="733.6" y="348.0" font-size="8" fill="#c9a227" font-weight="600">10</text>
  <circle cx="743.4" cy="307.5" r="2.5" fill="#c9a227" opacity="0.8"/>
  <text x="749.4" y="310.5" font-size="8" fill="#c9a227" font-weight="600">25</text>
  <circle cx="764.0" cy="245.0" r="2.5" fill="#c9a227" opacity="0.8"/>
  <text x="770.0" y="248.0" font-size="8" fill="#c9a227" font-weight="600">50</text>

  <line x1="60" y1="402" x2="800" y2="402" stroke="rgba(26,25,21,0.06)"/>
  <text x="60" y="414" font-size="8" fill="rgba(26,25,21,0.25)" font-style="italic">2.0 etoiles/sem · maj 29 Apr 2026 08:18 UTC</text>
  <text x="800" y="414" font-size="7" fill="rgba(26,25,21,0.18)" text-anchor="end" letter-spacing="0.1em">OBSERVATOIRE MMXXVI</text>

</svg>