<svg xmlns="http://www.w3.org/2000/svg" viewBox="0 0 840 420" width="840" height="420">
  <style>
    text { font-family: system-ui, -apple-system, 'Segoe UI', sans-serif; }
  </style>
  <defs>
    <pattern id="h" patternUnits="userSpaceOnUse" width="6" height="6" patternTransform="rotate(45)">
      <line x1="0" y1="0" x2="0" y2="6" stroke="rgba(26,25,21,0.07)" stroke-width="1"/>
    </pattern>
    <linearGradient id="lg" x1="0%" y1="0%" x2="100%" y2="0%">
      <stop offset="0%" stop-color="#1a1915" stop-opacity="0.4"/>
      <stop offset="30%" stop-color="#1a1915"/>
      <stop offset="100%" stop-color="#8b2500"/>
    </linearGradient>
  </defs>

  <rect width="840" height="420" rx="4" fill="#f5f0e8"/>
  <rect x=".5" y=".5" width="839" height="419" rx="4" fill="none" stroke="rgba(26,25,21,0.12)"/>

  <!-- Header -->
  <text x="60" y="32" font-size="11" font-weight="600" letter-spacing="0.14em" fill="#1a1915">OBSERVATOIRE</text>
  <text x="165" y="32" font-size="11" fill="#c9a227" letter-spacing="0.08em">·</text>
  <text x="178" y="32" font-size="11" font-weight="500" letter-spacing="0.06em" fill="rgba(26,25,21,0.45)">scub-france/Docling-Studio</text>

  <!-- Count -->
  <text x="800" y="30" font-size="34" font-weight="800" fill="#1a1915" text-anchor="end" letter-spacing="-0.02em">92</text>
  <text x="800" y="46" font-size="10" fill="rgba(26,25,21,0.35)" text-anchor="end" font-style="italic">etoiles observees</text>

  <!-- Weekly badge -->
  <rect x="704" y="54" width="96" height="20" rx="2" fill="none" stroke="rgba(201,162,39,0.35)"/>
  <text x="752" y="67" font-size="9" font-weight="600" fill="#c9a227" text-anchor="middle" letter-spacing="0.04em">↗ +18 THIS WEEK</text>

  <line x1="60" y1="90" x2="800" y2="90" stroke="rgba(26,25,21,0.1)"/>

  <!-- Stats row -->
  <text x="152.5" y="128" font-size="26" font-weight="600" fill="#1a1915" text-anchor="middle" letter-spacing="-0.02em">92</text>
  <text x="152.5" y="146" font-size="11" fill="rgba(26,25,21,0.4)" text-anchor="middle" font-style="italic">sur la periode</text>
  <line x1="245.0" y1="98" x2="245.0" y2="152" stroke="rgba(26,25,21,0.1)"/>
  <text x="337.5" y="128" font-size="26" font-weight="600" fill="#1a1915" text-anchor="middle" letter-spacing="-0.02em">+18</text>
  <text x="337.5" y="146" font-size="11" fill="rgba(26,25,21,0.4)" text-anchor="middle" font-style="italic">cette semaine</text>
  <line x1="430.0" y1="98" x2="430.0" y2="152" stroke="rgba(26,25,21,0.1)"/>
  <text x="522.5" y="128" font-size="26" font-weight="600" fill="#1a1915" text-anchor="middle" letter-spacing="-0.02em">2.3</text>
  <text x="522.5" y="146" font-size="11" fill="rgba(26,25,21,0.4)" text-anchor="middle" font-style="italic">moy. / semaine</text>
  <line x1="615.0" y1="98" x2="615.0" y2="152" stroke="rgba(26,25,21,0.1)"/>
  <text x="707.5" y="128" font-size="26" font-weight="600" fill="#1a1915" text-anchor="middle" letter-spacing="-0.02em">8</text>
  <text x="707.5" y="146" font-size="11" fill="rgba(26,25,21,0.4)" text-anchor="middle" font-style="italic">pic journalier</text>

  <line x1="60" y1="160" x2="800" y2="160" stroke="rgba(26,25,21,0.1)"/>

  <line x1="60" y1="370.0" x2="800" y2="370.0" stroke="rgba(26,25,21,0.05)"/>
  <text x="52" y="373.0" font-size="9" fill="rgba(26,25,21,0.3)" text-anchor="end" font-weight="500">0</text>
  <line x1="60" y1="330.9" x2="800" y2="330.9" stroke="rgba(26,25,21,0.05)"/>
  <text x="52" y="333.9" font-size="9" fill="rgba(26,25,21,0.3)" text-anchor="end" font-weight="500">18</text>
  <line x1="60" y1="291.7" x2="800" y2="291.7" stroke="rgba(26,25,21,0.05)"/>
  <text x="52" y="294.7" font-size="9" fill="rgba(26,25,21,0.3)" text-anchor="end" font-weight="500">36</text>
  <line x1="60" y1="252.6" x2="800" y2="252.6" stroke="rgba(26,25,21,0.05)"/>
  <text x="52" y="255.6" font-size="9" fill="rgba(26,25,21,0.3)" text-anchor="end" font-weight="500">54</text>
  <line x1="60" y1="213.5" x2="800" y2="213.5" stroke="rgba(26,25,21,0.05)"/>
  <text x="52" y="216.5" font-size="9" fill="rgba(26,25,21,0.3)" text-anchor="end" font-weight="500">72</text>
  <line x1="60" y1="174.3" x2="800" y2="174.3" stroke="rgba(26,25,21,0.05)"/>
  <text x="52" y="177.3" font-size="9" fill="rgba(26,25,21,0.3)" text-anchor="end" font-weight="500">90</text>
  <line x1="60" y1="170.0" x2="800" y2="170.0" stroke="rgba(26,25,21,0.05)"/>
  <text x="52" y="173.0" font-size="9" fill="rgba(26,25,21,0.3)" text-anchor="end" font-weight="500">92</text>
  <text x="60.0" y="388" font-size="9" fill="rgba(26,25,21,0.3)" font-weight="500" letter-spacing="0.03em">Jul 25</text>
  <text x="123.7" y="388" font-size="9" fill="rgba(26,25,21,0.3)" font-weight="500" letter-spacing="0.03em">Aug 25</text>
  <text x="177.8" y="388" font-size="9" fill="rgba(26,25,21,0.3)" font-weight="500" letter-spacing="0.03em">Sep 25</text>
  <text x="530.7" y="388" font-size="9" fill="rgba(26,25,21,0.3)" font-weight="500" letter-spacing="0.03em">Jan 26</text>
  <text x="719.4" y="388" font-size="9" fill="rgba(26,25,21,0.3)" font-weight="500" letter-spacing="0.03em">Mar 26</text>
  <text x="721.5" y="388" font-size="9" fill="rgba(26,25,21,0.3)" font-weight="500" letter-spacing="0.03em">Apr 26</text>
  <text x="798.5" y="388" font-size="9" fill="rgba(26,25,21,0.3)" font-weight="500" letter-spacing="0.03em">May 26</text>

  <line x1="60" y1="170" x2="60" y2="370" stroke="rgba(26,25,21,0.12)"/>
  <line x1="60" y1="370" x2="800" y2="370" stroke="rgba(26,25,21,0.12)"/>

  <path d="M 60.0,370 L 60.0,367.8 L 62.2,365.7 L 123.7,363.5 L 136.6,361.3 L 177.8,359.1 L 530.7,357.0 L 719.4,354.8 L 720.0,352.6 L 720.1,350.4 L 720.1,348.3 L 720.2,346.1 L 720.5,343.9 L 720.6,341.7 L 720.7,339.6 L 721.5,337.4 L 722.4,335.2 L 724.4,333.0 L 725.5,330.9 L 726.8,328.7 L 727.8,326.5 L 729.7,324.3 L 732.1,322.2 L 733.9,320.0 L 734.4,317.8 L 735.8,315.7 L 737.6,313.5 L 740.0,311.3 L 740.1,309.1 L 740.2,307.0 L 740.2,304.8 L 740.2,302.6 L 740.9,300.4 L 741.9,298.3 L 743.2,296.1 L 743.6,293.9 L 744.8,291.7 L 745.8,289.6 L 746.3,287.4 L 747.2,285.2 L 748.2,283.0 L 748.6,280.9 L 748.7,278.7 L 749.0,276.5 L 750.4,274.3 L 753.3,272.2 L 753.7,270.0 L 754.3,267.8 L 755.6,265.7 L 756.0,263.5 L 756.2,261.3 L 757.1,259.1 L 758.1,257.0 L 758.2,254.8 L 758.6,252.6 L 759.1,250.4 L 760.1,248.3 L 760.5,246.1 L 761.2,243.9 L 761.9,241.7 L 762.4,239.6 L 763.4,237.4 L 765.8,235.2 L 771.1,233.0 L 773.0,230.9 L 773.0,228.7 L 776.1,226.5 L 776.9,224.3 L 777.1,222.2 L 777.1,220.0 L 777.1,217.8 L 779.1,215.7 L 780.9,213.5 L 781.0,211.3 L 782.3,209.1 L 786.2,207.0 L 786.8,204.8 L 787.5,202.6 L 787.5,200.4 L 791.7,198.3 L 791.8,196.1 L 794.8,193.9 L 794.8,191.7 L 795.5,189.6 L 796.0,187.4 L 796.2,185.2 L 796.4,183.0 L 797.0,180.9 L 797.3,178.7 L 797.5,176.5 L 798.5,174.3 L 799.4,172.2 L 800.0,170.0 L 800.0,370 Z" fill="url(#h)"/>
  <polyline points="60.0,367.8 62.2,365.7 123.7,363.5 136.6,361.3 177.8,359.1 530.7,357.0 719.4,354.8 720.0,352.6 720.1,350.4 720.1,348.3 720.2,346.1 720.5,343.9 720.6,341.7 720.7,339.6 721.5,337.4 722.4,335.2 724.4,333.0 725.5,330.9 726.8,328.7 727.8,326.5 729.7,324.3 732.1,322.2 733.9,320.0 734.4,317.8 735.8,315.7 737.6,313.5 740.0,311.3 740.1,309.1 740.2,307.0 740.2,304.8 740.2,302.6 740.9,300.4 741.9,298.3 743.2,296.1 743.6,293.9 744.8,291.7 745.8,289.6 746.3,287.4 747.2,285.2 748.2,283.0 748.6,280.9 748.7,278.7 749.0,276.5 750.4,274.3 753.3,272.2 753.7,270.0 754.3,267.8 755.6,265.7 756.0,263.5 756.2,261.3 757.1,259.1 758.1,257.0 758.2,254.8 758.6,252.6 759.1,250.4 760.1,248.3 760.5,246.1 761.2,243.9 761.9,241.7 762.4,239.6 763.4,237.4 765.8,235.2 771.1,233.0 773.0,230.9 773.0,228.7 776.1,226.5 776.9,224.3 777.1,222.2 777.1,220.0 777.1,217.8 779.1,215.7 780.9,213.5 781.0,211.3 782.3,209.1 786.2,207.0 786.8,204.8 787.5,202.6 787.5,200.4 791.7,198.3 791.8,196.1 794.8,193.9 794.8,191.7 795.5,189.6 796.0,187.4 796.2,185.2 796.4,183.0 797.0,180.9 797.3,178.7 797.5,176.5 798.5,174.3 799.4,172.2 800.0,170.0" fill="none" stroke="url(#lg)" stroke-width="2" stroke-linejoin="round" stroke-linecap="round"/>

  <circle cx="800.0" cy="170.0" r="4.5" fill="#8b2500"/>
  <circle cx="800.0" cy="170.0" r="2" fill="#f5f0e8"/>
  <circle cx="720.1" cy="348.3" r="2.5" fill="#c9a227" opacity="0.8"/>
  <text x="726.1" y="351.3" font-size="8" fill="#c9a227" font-weight="600">10</text>
  <circle cx="735.8" cy="315.7" r="2.5" fill="#c9a227" opacity="0.8"/>
  <text x="741.8" y="318.7" font-size="8" fill="#c9a227" font-weight="600">25</text>
  <circle cx="756.2" cy="261.3" r="2.5" fill="#c9a227" opacity="0.8"/>
  <text x="762.2" y="264.3" font-size="8" fill="#c9a227" font-weight="600">50</text>

  <line x1="60" y1="402" x2="800" y2="402" stroke="rgba(26,25,21,0.06)"/>
  <text x="60" y="414" font-size="8" fill="rgba(26,25,21,0.25)" font-style="italic">2.3 etoiles/sem · maj 01 May 2026 19:11 UTC</text>
  <text x="800" y="414" font-size="7" fill="rgba(26,25,21,0.18)" text-anchor="end" letter-spacing="0.1em">OBSERVATOIRE MMXXVI</text>

</svg>