<svg xmlns="http://www.w3.org/2000/svg" viewBox="0 0 840 420" width="840" height="420">
  <style>
    text { font-family: system-ui, -apple-system, 'Segoe UI', sans-serif; }
  </style>
  <defs>
    <pattern id="h" patternUnits="userSpaceOnUse" width="6" height="6" patternTransform="rotate(45)">
      <line x1="0" y1="0" x2="0" y2="6" stroke="rgba(26,25,21,0.07)" stroke-width="1"/>
    </pattern>
    <linearGradient id="lg" x1="0%" y1="0%" x2="100%" y2="0%">
      <stop offset="0%" stop-color="#1a1915" stop-opacity="0.4"/>
      <stop offset="30%" stop-color="#1a1915"/>
      <stop offset="100%" stop-color="#8b2500"/>
    </linearGradient>
  </defs>

  <rect width="840" height="420" rx="4" fill="#f5f0e8"/>
  <rect x=".5" y=".5" width="839" height="419" rx="4" fill="none" stroke="rgba(26,25,21,0.12)"/>

  <!-- Header -->
  <text x="60" y="32" font-size="11" font-weight="600" letter-spacing="0.14em" fill="#1a1915">OBSERVATOIRE</text>
  <text x="165" y="32" font-size="11" fill="#c9a227" letter-spacing="0.08em">·</text>
  <text x="178" y="32" font-size="11" font-weight="500" letter-spacing="0.06em" fill="rgba(26,25,21,0.45)">scub-france/Docling-Studio</text>

  <!-- Count -->
  <text x="800" y="30" font-size="34" font-weight="800" fill="#1a1915" text-anchor="end" letter-spacing="-0.02em">78</text>
  <text x="800" y="46" font-size="10" fill="rgba(26,25,21,0.35)" text-anchor="end" font-style="italic">etoiles observees</text>

  <!-- Weekly badge -->
  <rect x="704" y="54" width="96" height="20" rx="2" fill="none" stroke="rgba(201,162,39,0.35)"/>
  <text x="752" y="67" font-size="9" font-weight="600" fill="#c9a227" text-anchor="middle" letter-spacing="0.04em">↗ +15 THIS WEEK</text>

  <line x1="60" y1="90" x2="800" y2="90" stroke="rgba(26,25,21,0.1)"/>

  <!-- Stats row -->
  <text x="152.5" y="128" font-size="26" font-weight="600" fill="#1a1915" text-anchor="middle" letter-spacing="-0.02em">78</text>
  <text x="152.5" y="146" font-size="11" fill="rgba(26,25,21,0.4)" text-anchor="middle" font-style="italic">sur la periode</text>
  <line x1="245.0" y1="98" x2="245.0" y2="152" stroke="rgba(26,25,21,0.1)"/>
  <text x="337.5" y="128" font-size="26" font-weight="600" fill="#1a1915" text-anchor="middle" letter-spacing="-0.02em">+15</text>
  <text x="337.5" y="146" font-size="11" fill="rgba(26,25,21,0.4)" text-anchor="middle" font-style="italic">cette semaine</text>
  <line x1="430.0" y1="98" x2="430.0" y2="152" stroke="rgba(26,25,21,0.1)"/>
  <text x="522.5" y="128" font-size="26" font-weight="600" fill="#1a1915" text-anchor="middle" letter-spacing="-0.02em">1.9</text>
  <text x="522.5" y="146" font-size="11" fill="rgba(26,25,21,0.4)" text-anchor="middle" font-style="italic">moy. / semaine</text>
  <line x1="615.0" y1="98" x2="615.0" y2="152" stroke="rgba(26,25,21,0.1)"/>
  <text x="707.5" y="128" font-size="26" font-weight="600" fill="#1a1915" text-anchor="middle" letter-spacing="-0.02em">8</text>
  <text x="707.5" y="146" font-size="11" fill="rgba(26,25,21,0.4)" text-anchor="middle" font-style="italic">pic journalier</text>

  <line x1="60" y1="160" x2="800" y2="160" stroke="rgba(26,25,21,0.1)"/>

  <line x1="60" y1="370.0" x2="800" y2="370.0" stroke="rgba(26,25,21,0.05)"/>
  <text x="52" y="373.0" font-size="9" fill="rgba(26,25,21,0.3)" text-anchor="end" font-weight="500">0</text>
  <line x1="60" y1="331.5" x2="800" y2="331.5" stroke="rgba(26,25,21,0.05)"/>
  <text x="52" y="334.5" font-size="9" fill="rgba(26,25,21,0.3)" text-anchor="end" font-weight="500">15</text>
  <line x1="60" y1="293.1" x2="800" y2="293.1" stroke="rgba(26,25,21,0.05)"/>
  <text x="52" y="296.1" font-size="9" fill="rgba(26,25,21,0.3)" text-anchor="end" font-weight="500">30</text>
  <line x1="60" y1="254.6" x2="800" y2="254.6" stroke="rgba(26,25,21,0.05)"/>
  <text x="52" y="257.6" font-size="9" fill="rgba(26,25,21,0.3)" text-anchor="end" font-weight="500">45</text>
  <line x1="60" y1="216.2" x2="800" y2="216.2" stroke="rgba(26,25,21,0.05)"/>
  <text x="52" y="219.2" font-size="9" fill="rgba(26,25,21,0.3)" text-anchor="end" font-weight="500">60</text>
  <line x1="60" y1="177.7" x2="800" y2="177.7" stroke="rgba(26,25,21,0.05)"/>
  <text x="52" y="180.7" font-size="9" fill="rgba(26,25,21,0.3)" text-anchor="end" font-weight="500">75</text>
  <line x1="60" y1="170.0" x2="800" y2="170.0" stroke="rgba(26,25,21,0.05)"/>
  <text x="52" y="173.0" font-size="9" fill="rgba(26,25,21,0.3)" text-anchor="end" font-weight="500">78</text>
  <text x="60.0" y="388" font-size="9" fill="rgba(26,25,21,0.3)" font-weight="500" letter-spacing="0.03em">Jul 25</text>
  <text x="124.7" y="388" font-size="9" fill="rgba(26,25,21,0.3)" font-weight="500" letter-spacing="0.03em">Aug 25</text>
  <text x="179.8" y="388" font-size="9" fill="rgba(26,25,21,0.3)" font-weight="500" letter-spacing="0.03em">Sep 25</text>
  <text x="538.7" y="388" font-size="9" fill="rgba(26,25,21,0.3)" font-weight="500" letter-spacing="0.03em">Jan 26</text>
  <text x="730.7" y="388" font-size="9" fill="rgba(26,25,21,0.3)" font-weight="500" letter-spacing="0.03em">Mar 26</text>
  <text x="732.8" y="388" font-size="9" fill="rgba(26,25,21,0.3)" font-weight="500" letter-spacing="0.03em">Apr 26</text>

  <line x1="60" y1="170" x2="60" y2="370" stroke="rgba(26,25,21,0.12)"/>
  <line x1="60" y1="370" x2="800" y2="370" stroke="rgba(26,25,21,0.12)"/>

  <path d="M 60.0,370 L 60.0,367.4 L 62.3,364.9 L 124.7,362.3 L 137.9,359.7 L 179.8,357.2 L 538.7,354.6 L 730.7,352.1 L 731.3,349.5 L 731.4,346.9 L 731.4,344.4 L 731.5,341.8 L 731.8,339.2 L 731.9,336.7 L 732.0,334.1 L 732.8,331.5 L 733.7,329.0 L 735.8,326.4 L 736.9,323.8 L 738.2,321.3 L 739.2,318.7 L 741.2,316.2 L 743.6,313.6 L 745.5,311.0 L 746.0,308.5 L 747.3,305.9 L 749.2,303.3 L 751.7,300.8 L 751.7,298.2 L 751.8,295.6 L 751.9,293.1 L 751.9,290.5 L 752.6,287.9 L 753.5,285.4 L 754.9,282.8 L 755.3,280.3 L 756.5,277.7 L 757.6,275.1 L 758.1,272.6 L 758.9,270.0 L 759.9,267.4 L 760.4,264.9 L 760.5,262.3 L 760.8,259.7 L 762.2,257.2 L 765.2,254.6 L 765.6,252.1 L 766.2,249.5 L 767.5,246.9 L 767.9,244.4 L 768.1,241.8 L 769.1,239.2 L 770.0,236.7 L 770.2,234.1 L 770.6,231.5 L 771.1,229.0 L 772.0,226.4 L 772.5,223.8 L 773.2,221.3 L 773.9,218.7 L 774.4,216.2 L 775.4,213.6 L 777.9,211.0 L 783.3,208.5 L 785.2,205.9 L 785.3,203.3 L 788.3,200.8 L 789.1,198.2 L 789.3,195.6 L 789.3,193.1 L 789.4,190.5 L 791.4,187.9 L 793.2,185.4 L 793.4,182.8 L 794.7,180.3 L 798.7,177.7 L 799.2,175.1 L 800.0,172.6 L 800.0,170.0 L 800.0,370 Z" fill="url(#h)"/>
  <polyline points="60.0,367.4 62.3,364.9 124.7,362.3 137.9,359.7 179.8,357.2 538.7,354.6 730.7,352.1 731.3,349.5 731.4,346.9 731.4,344.4 731.5,341.8 731.8,339.2 731.9,336.7 732.0,334.1 732.8,331.5 733.7,329.0 735.8,326.4 736.9,323.8 738.2,321.3 739.2,318.7 741.2,316.2 743.6,313.6 745.5,311.0 746.0,308.5 747.3,305.9 749.2,303.3 751.7,300.8 751.7,298.2 751.8,295.6 751.9,293.1 751.9,290.5 752.6,287.9 753.5,285.4 754.9,282.8 755.3,280.3 756.5,277.7 757.6,275.1 758.1,272.6 758.9,270.0 759.9,267.4 760.4,264.9 760.5,262.3 760.8,259.7 762.2,257.2 765.2,254.6 765.6,252.1 766.2,249.5 767.5,246.9 767.9,244.4 768.1,241.8 769.1,239.2 770.0,236.7 770.2,234.1 770.6,231.5 771.1,229.0 772.0,226.4 772.5,223.8 773.2,221.3 773.9,218.7 774.4,216.2 775.4,213.6 777.9,211.0 783.3,208.5 785.2,205.9 785.3,203.3 788.3,200.8 789.1,198.2 789.3,195.6 789.3,193.1 789.4,190.5 791.4,187.9 793.2,185.4 793.4,182.8 794.7,180.3 798.7,177.7 799.2,175.1 800.0,172.6 800.0,170.0" fill="none" stroke="url(#lg)" stroke-width="2" stroke-linejoin="round" stroke-linecap="round"/>

  <circle cx="800.0" cy="170.0" r="4.5" fill="#8b2500"/>
  <circle cx="800.0" cy="170.0" r="2" fill="#f5f0e8"/>
  <circle cx="731.4" cy="344.4" r="2.5" fill="#c9a227" opacity="0.8"/>
  <text x="737.4" y="347.4" font-size="8" fill="#c9a227" font-weight="600">10</text>
  <circle cx="747.3" cy="305.9" r="2.5" fill="#c9a227" opacity="0.8"/>
  <text x="753.3" y="308.9" font-size="8" fill="#c9a227" font-weight="600">25</text>
  <circle cx="768.1" cy="241.8" r="2.5" fill="#c9a227" opacity="0.8"/>
  <text x="774.1" y="244.8" font-size="8" fill="#c9a227" font-weight="600">50</text>

  <line x1="60" y1="402" x2="800" y2="402" stroke="rgba(26,25,21,0.06)"/>
  <text x="60" y="414" font-size="8" fill="rgba(26,25,21,0.25)" font-style="italic">1.9 etoiles/sem · maj 27 Apr 2026 13:52 UTC</text>
  <text x="800" y="414" font-size="7" fill="rgba(26,25,21,0.18)" text-anchor="end" letter-spacing="0.1em">OBSERVATOIRE MMXXVI</text>

</svg>