<svg xmlns="http://www.w3.org/2000/svg" viewBox="0 0 840 420" width="840" height="420">
  <style>
    text { font-family: system-ui, -apple-system, 'Segoe UI', sans-serif; }
  </style>
  <defs>
    <pattern id="h" patternUnits="userSpaceOnUse" width="6" height="6" patternTransform="rotate(45)">
      <line x1="0" y1="0" x2="0" y2="6" stroke="rgba(26,25,21,0.07)" stroke-width="1"/>
    </pattern>
    <linearGradient id="lg" x1="0%" y1="0%" x2="100%" y2="0%">
      <stop offset="0%" stop-color="#1a1915" stop-opacity="0.4"/>
      <stop offset="30%" stop-color="#1a1915"/>
      <stop offset="100%" stop-color="#8b2500"/>
    </linearGradient>
  </defs>

  <rect width="840" height="420" rx="4" fill="#f5f0e8"/>
  <rect x=".5" y=".5" width="839" height="419" rx="4" fill="none" stroke="rgba(26,25,21,0.12)"/>

  <!-- Header -->
  <text x="60" y="32" font-size="11" font-weight="600" letter-spacing="0.14em" fill="#1a1915">OBSERVATOIRE</text>
  <text x="165" y="32" font-size="11" fill="#c9a227" letter-spacing="0.08em">·</text>
  <text x="178" y="32" font-size="11" font-weight="500" letter-spacing="0.06em" fill="rgba(26,25,21,0.45)">scub-france/Docling-Studio</text>

  <!-- Count -->
  <text x="800" y="30" font-size="34" font-weight="800" fill="#1a1915" text-anchor="end" letter-spacing="-0.02em">74</text>
  <text x="800" y="46" font-size="10" fill="rgba(26,25,21,0.35)" text-anchor="end" font-style="italic">etoiles observees</text>

  <!-- Weekly badge -->
  <rect x="704" y="54" width="96" height="20" rx="2" fill="none" stroke="rgba(201,162,39,0.35)"/>
  <text x="752" y="67" font-size="9" font-weight="600" fill="#c9a227" text-anchor="middle" letter-spacing="0.04em">↗ +12 THIS WEEK</text>

  <line x1="60" y1="90" x2="800" y2="90" stroke="rgba(26,25,21,0.1)"/>

  <!-- Stats row -->
  <text x="152.5" y="128" font-size="26" font-weight="600" fill="#1a1915" text-anchor="middle" letter-spacing="-0.02em">74</text>
  <text x="152.5" y="146" font-size="11" fill="rgba(26,25,21,0.4)" text-anchor="middle" font-style="italic">sur la periode</text>
  <line x1="245.0" y1="98" x2="245.0" y2="152" stroke="rgba(26,25,21,0.1)"/>
  <text x="337.5" y="128" font-size="26" font-weight="600" fill="#1a1915" text-anchor="middle" letter-spacing="-0.02em">+12</text>
  <text x="337.5" y="146" font-size="11" fill="rgba(26,25,21,0.4)" text-anchor="middle" font-style="italic">cette semaine</text>
  <line x1="430.0" y1="98" x2="430.0" y2="152" stroke="rgba(26,25,21,0.1)"/>
  <text x="522.5" y="128" font-size="26" font-weight="600" fill="#1a1915" text-anchor="middle" letter-spacing="-0.02em">1.9</text>
  <text x="522.5" y="146" font-size="11" fill="rgba(26,25,21,0.4)" text-anchor="middle" font-style="italic">moy. / semaine</text>
  <line x1="615.0" y1="98" x2="615.0" y2="152" stroke="rgba(26,25,21,0.1)"/>
  <text x="707.5" y="128" font-size="26" font-weight="600" fill="#1a1915" text-anchor="middle" letter-spacing="-0.02em">8</text>
  <text x="707.5" y="146" font-size="11" fill="rgba(26,25,21,0.4)" text-anchor="middle" font-style="italic">pic journalier</text>

  <line x1="60" y1="160" x2="800" y2="160" stroke="rgba(26,25,21,0.1)"/>

  <line x1="60" y1="370.0" x2="800" y2="370.0" stroke="rgba(26,25,21,0.05)"/>
  <text x="52" y="373.0" font-size="9" fill="rgba(26,25,21,0.3)" text-anchor="end" font-weight="500">0</text>
  <line x1="60" y1="332.2" x2="800" y2="332.2" stroke="rgba(26,25,21,0.05)"/>
  <text x="52" y="335.2" font-size="9" fill="rgba(26,25,21,0.3)" text-anchor="end" font-weight="500">14</text>
  <line x1="60" y1="294.3" x2="800" y2="294.3" stroke="rgba(26,25,21,0.05)"/>
  <text x="52" y="297.3" font-size="9" fill="rgba(26,25,21,0.3)" text-anchor="end" font-weight="500">28</text>
  <line x1="60" y1="256.5" x2="800" y2="256.5" stroke="rgba(26,25,21,0.05)"/>
  <text x="52" y="259.5" font-size="9" fill="rgba(26,25,21,0.3)" text-anchor="end" font-weight="500">42</text>
  <line x1="60" y1="218.6" x2="800" y2="218.6" stroke="rgba(26,25,21,0.05)"/>
  <text x="52" y="221.6" font-size="9" fill="rgba(26,25,21,0.3)" text-anchor="end" font-weight="500">56</text>
  <line x1="60" y1="180.8" x2="800" y2="180.8" stroke="rgba(26,25,21,0.05)"/>
  <text x="52" y="183.8" font-size="9" fill="rgba(26,25,21,0.3)" text-anchor="end" font-weight="500">70</text>
  <line x1="60" y1="170.0" x2="800" y2="170.0" stroke="rgba(26,25,21,0.05)"/>
  <text x="52" y="173.0" font-size="9" fill="rgba(26,25,21,0.3)" text-anchor="end" font-weight="500">74</text>
  <text x="60.0" y="388" font-size="9" fill="rgba(26,25,21,0.3)" font-weight="500" letter-spacing="0.03em">Jul 25</text>
  <text x="125.2" y="388" font-size="9" fill="rgba(26,25,21,0.3)" font-weight="500" letter-spacing="0.03em">Aug 25</text>
  <text x="180.7" y="388" font-size="9" fill="rgba(26,25,21,0.3)" font-weight="500" letter-spacing="0.03em">Sep 25</text>
  <text x="542.2" y="388" font-size="9" fill="rgba(26,25,21,0.3)" font-weight="500" letter-spacing="0.03em">Jan 26</text>
  <text x="735.5" y="388" font-size="9" fill="rgba(26,25,21,0.3)" font-weight="500" letter-spacing="0.03em">Mar 26</text>
  <text x="737.7" y="388" font-size="9" fill="rgba(26,25,21,0.3)" font-weight="500" letter-spacing="0.03em">Apr 26</text>

  <line x1="60" y1="170" x2="60" y2="370" stroke="rgba(26,25,21,0.12)"/>
  <line x1="60" y1="370" x2="800" y2="370" stroke="rgba(26,25,21,0.12)"/>

  <path d="M 60.0,370 L 60.0,367.3 L 62.3,364.6 L 125.2,361.9 L 138.5,359.2 L 180.7,356.5 L 542.2,353.8 L 735.5,351.1 L 736.2,348.4 L 736.3,345.7 L 736.3,343.0 L 736.4,340.3 L 736.7,337.6 L 736.8,334.9 L 736.9,332.2 L 737.7,329.5 L 738.6,326.8 L 740.7,324.1 L 741.8,321.4 L 743.1,318.6 L 744.1,315.9 L 746.1,313.2 L 748.6,310.5 L 750.5,307.8 L 751.0,305.1 L 752.3,302.4 L 754.2,299.7 L 756.7,297.0 L 756.8,294.3 L 756.8,291.6 L 756.9,288.9 L 756.9,286.2 L 757.6,283.5 L 758.6,280.8 L 759.9,278.1 L 760.3,275.4 L 761.6,272.7 L 762.6,270.0 L 763.2,267.3 L 764.0,264.6 L 765.0,261.9 L 765.5,259.2 L 765.5,256.5 L 765.9,253.8 L 767.3,251.1 L 770.3,248.4 L 770.7,245.7 L 771.3,243.0 L 772.6,240.3 L 773.0,237.6 L 773.2,234.9 L 774.2,232.2 L 775.2,229.5 L 775.3,226.8 L 775.7,224.1 L 776.3,221.4 L 777.2,218.6 L 777.6,215.9 L 778.4,213.2 L 779.1,210.5 L 779.6,207.8 L 780.6,205.1 L 783.1,202.4 L 788.5,199.7 L 790.5,197.0 L 790.5,194.3 L 793.6,191.6 L 794.4,188.9 L 794.6,186.2 L 794.6,183.5 L 794.7,180.8 L 796.7,178.1 L 798.6,175.4 L 798.7,172.7 L 800.0,170.0 L 800.0,370 Z" fill="url(#h)"/>
  <polyline points="60.0,367.3 62.3,364.6 125.2,361.9 138.5,359.2 180.7,356.5 542.2,353.8 735.5,351.1 736.2,348.4 736.3,345.7 736.3,343.0 736.4,340.3 736.7,337.6 736.8,334.9 736.9,332.2 737.7,329.5 738.6,326.8 740.7,324.1 741.8,321.4 743.1,318.6 744.1,315.9 746.1,313.2 748.6,310.5 750.5,307.8 751.0,305.1 752.3,302.4 754.2,299.7 756.7,297.0 756.8,294.3 756.8,291.6 756.9,288.9 756.9,286.2 757.6,283.5 758.6,280.8 759.9,278.1 760.3,275.4 761.6,272.7 762.6,270.0 763.2,267.3 764.0,264.6 765.0,261.9 765.5,259.2 765.5,256.5 765.9,253.8 767.3,251.1 770.3,248.4 770.7,245.7 771.3,243.0 772.6,240.3 773.0,237.6 773.2,234.9 774.2,232.2 775.2,229.5 775.3,226.8 775.7,224.1 776.3,221.4 777.2,218.6 777.6,215.9 778.4,213.2 779.1,210.5 779.6,207.8 780.6,205.1 783.1,202.4 788.5,199.7 790.5,197.0 790.5,194.3 793.6,191.6 794.4,188.9 794.6,186.2 794.6,183.5 794.7,180.8 796.7,178.1 798.6,175.4 798.7,172.7 800.0,170.0" fill="none" stroke="url(#lg)" stroke-width="2" stroke-linejoin="round" stroke-linecap="round"/>

  <circle cx="800.0" cy="170.0" r="4.5" fill="#8b2500"/>
  <circle cx="800.0" cy="170.0" r="2" fill="#f5f0e8"/>
  <circle cx="736.3" cy="343.0" r="2.5" fill="#c9a227" opacity="0.8"/>
  <text x="742.3" y="346.0" font-size="8" fill="#c9a227" font-weight="600">10</text>
  <circle cx="752.3" cy="302.4" r="2.5" fill="#c9a227" opacity="0.8"/>
  <text x="758.3" y="305.4" font-size="8" fill="#c9a227" font-weight="600">25</text>
  <circle cx="773.2" cy="234.9" r="2.5" fill="#c9a227" opacity="0.8"/>
  <text x="779.2" y="237.9" font-size="8" fill="#c9a227" font-weight="600">50</text>

  <line x1="60" y1="402" x2="800" y2="402" stroke="rgba(26,25,21,0.06)"/>
  <text x="60" y="414" font-size="8" fill="rgba(26,25,21,0.25)" font-style="italic">1.9 etoiles/sem · maj 25 Apr 2026 18:52 UTC</text>
  <text x="800" y="414" font-size="7" fill="rgba(26,25,21,0.18)" text-anchor="end" letter-spacing="0.1em">OBSERVATOIRE MMXXVI</text>

</svg>